<svg xmlns="http://www.w3.org/2000/svg" viewBox="0 0 215 216.5"><defs><style>.cls-1{fill:#656563;}.cls-2{fill:#fff;}</style></defs><title>Play</title><g id="Layer_2" data-name="Layer 2"><g id="Layer_1-2" data-name="Layer 1"><path class="cls-1" d="M106.75,215A106.75,106.75,0,1,1,213.5,108.25,106.87,106.87,0,0,1,106.75,215Zm0-212A105.25,105.25,0,1,0,212,108.25,105.36,105.36,0,0,0,106.75,3Z"/><path class="cls-2" d="M106.75,216.5a108,108,0,0,1-72.56-27.92,2.25,2.25,0,1,1,3-3.33A103.75,103.75,0,1,0,106.75,4.5a2.25,2.25,0,0,1,0-4.5,108.25,108.25,0,0,1,0,216.5Z"/><path class="cls-2" d="M122.39,106.34,96.11,91.16a2.21,2.21,0,0,0-3.31,1.92v30.34a2.21,2.21,0,0,0,3.31,1.92l26.28-15.18A2.2,2.2,0,0,0,122.39,106.34Z"/></g></g></svg>