<svg xmlns="http://www.w3.org/2000/svg" viewBox="0 0 57 35"><defs><style>.cls-1{fill:#043f70;}</style></defs><title>Arrow</title><g id="Layer_2" data-name="Layer 2"><g id="Layer_1-2" data-name="Layer 1"><path class="cls-1" d="M56.68,18.42l.12-.18a.47.47,0,0,0,.05-.1.83.83,0,0,0,.08-.22l0-.09a1.38,1.38,0,0,0,0-.66l0-.09a.83.83,0,0,0-.08-.22.47.47,0,0,0-.05-.1l-.12-.18-.07-.09-.18-.16,0,0C56.28,16.21,45.71,8.47,42.9,1A1.5,1.5,0,1,0,40.1,2c2.06,5.5,7.53,10.86,11.14,14H1.5a1.5,1.5,0,0,0,0,3H51.24c-3.61,3.11-9.08,8.47-11.14,14A1.49,1.49,0,0,0,41,34.9a1.46,1.46,0,0,0,.53.1,1.49,1.49,0,0,0,1.4-1c2.81-7.48,13.38-15.24,13.48-15.32l.06-.05.16-.15Z"/></g></g></svg>