<svg xmlns="http://www.w3.org/2000/svg" viewBox="0 0 243.95 213.35"><defs><style>.cls-1,.cls-2{fill:#043f70;}.cls-1{fill-rule:evenodd;}</style></defs><title>Logo_Blue</title><g id="Layer_2" data-name="Layer 2"><g id="Layer_1-2" data-name="Layer 1"><path class="cls-1" d="M9.68,198.16H.36A.36.36,0,0,1,0,197.8V176.1a.87.87,0,0,1,.48.77.87.87,0,0,0,0-1.73.86.86,0,0,1-.48.77v-6.39a2,2,0,0,1,2-2,2,2,0,0,1-2-2v-5.42H0a.36.36,0,0,1,.36-.36H9.3c3.17,0,5.45.75,6.94,2.26s2.2,3.77,2.2,6.77v1.51A14.3,14.3,0,0,1,18.2,173a.87.87,0,0,1-.56-.81.87.87,0,0,1-.87.87.87.87,0,0,1,.87.87.89.89,0,0,1,.53-.8,8,8,0,0,1-.7,2A5.69,5.69,0,0,1,15,177.69,6.06,6.06,0,0,1,18,180.44,11.14,11.14,0,0,1,19,185.63v3.23c0,3-.81,5.34-2.4,6.92s-3.9,2.38-6.95,2.38ZM242,183.92a1.43,1.43,0,0,0-1.43,1.43,1.44,1.44,0,0,0-1.43-1.43,1.44,1.44,0,0,0,1.43-1.43,1.44,1.44,0,0,0,1.43,1.43Zm-.57,5.59a.24.24,0,0,0,.23-.23.23.23,0,0,0-.23-.23.23.23,0,0,0-.23.23.23.23,0,0,0,.23.23Zm-5.36-12.44a.82.82,0,1,1-1.64,0,.82.82,0,0,1,1.64,0Zm4.5,17.88a1.29,1.29,0,0,0-1.28,1.28A1.28,1.28,0,0,0,238,195a1.28,1.28,0,0,0,1.28-1.28,1.29,1.29,0,0,0,1.28,1.28ZM217,165.24a.31.31,0,1,0-.31-.31.31.31,0,0,0,.31.31Zm-10.73,8a.28.28,0,0,0,.28-.28.29.29,0,0,0-.28-.28.28.28,0,0,0-.28.28.27.27,0,0,0,.28.28Zm30-12.91a.2.2,0,0,0,.21-.2.21.21,0,0,0-.21-.21.21.21,0,1,0,0,.41Zm.55,6a.42.42,0,0,0,.42-.42.42.42,0,0,0-.83,0,.42.42,0,0,0,.41.42Zm-17.27-5.6a.74.74,0,0,1-1.48,0,.74.74,0,1,1,1.48,0Zm11.77,3.05a.74.74,0,0,1-1.48,0,.74.74,0,0,1,1.48,0Zm-24.08,14.89a.27.27,0,0,1,.28.28.28.28,0,0,1-.28.28.29.29,0,0,1-.28-.28.28.28,0,0,1,.28-.28Zm-12.33-.75a.38.38,0,1,1,0,.75.38.38,0,0,1,0-.75ZM194,188.75a.28.28,0,0,1,.28.28.29.29,0,0,1-.28.28.28.28,0,0,1-.28-.28.27.27,0,0,1,.28-.28Zm17.46,4.4a.19.19,0,0,1,.18.19.18.18,0,0,1-.18.19.18.18,0,0,1-.19-.19.19.19,0,0,1,.19-.19Zm-15.13-.32a.68.68,0,0,1-.67-.67.67.67,0,0,0,0,1.34.68.68,0,0,1,.67-.67Zm-1.43-9.13a1.52,1.52,0,0,1-1.52-1.51,1.52,1.52,0,0,1-1.52,1.51,1.52,1.52,0,0,1,1.52,1.52,1.52,1.52,0,0,1,1.52-1.52Zm13.27-.17a1.55,1.55,0,0,1-1.54-1.54,1.55,1.55,0,0,1-1.54,1.54,1.54,1.54,0,0,1,1.54,1.54,1.54,1.54,0,0,1,1.54-1.54ZM207,190.07a.67.67,0,0,0-1.34,0,.67.67,0,0,0,1.34,0Zm-27.91-18.14a1.27,1.27,0,0,0,1.27-1.27,1.26,1.26,0,0,0,1.26,1.27,1.26,1.26,0,0,0-1.26,1.26,1.27,1.27,0,0,0-1.27-1.26Zm15.52-6a.42.42,0,0,0-.41.41.41.41,0,0,0,.41.4.4.4,0,0,0,.4-.4.41.41,0,0,0-.4-.41Zm-15,1a.2.2,0,0,0-.2.21.2.2,0,0,0,.2.2.2.2,0,0,0,.21-.2.21.21,0,0,0-.21-.21Zm7.27,6.57a.31.31,0,1,0,.31.31.31.31,0,0,0-.31-.31Zm-5.73,2.88a.28.28,0,0,0-.28.27.29.29,0,0,0,.28.28.28.28,0,0,0,.27-.28.27.27,0,0,0-.27-.27Zm-5.13,5.3a.72.72,0,0,1,1.44,0,.72.72,0,0,1-1.44,0ZM172.8,175a.73.73,0,0,0,.73-.73.73.73,0,0,0,.72.73.72.72,0,0,0-.72.72.73.73,0,0,0-.73-.72Zm-14.38,2.51a.3.3,0,1,0-.3-.3.29.29,0,0,0,.3.3Zm-13.06.79a.4.4,0,0,0,.4-.4.4.4,0,0,0-.79,0,.4.4,0,0,0,.39.4Zm6.16-5a.2.2,0,1,0-.2-.2.2.2,0,0,0,.2.2Zm-7.11-6.42a.3.3,0,1,0,0-.59.3.3,0,0,0,0,.59ZM150,164a.27.27,0,1,0-.27-.27.27.27,0,0,0,.27.27Zm12.88-1.86a.2.2,0,1,0-.2-.2.2.2,0,0,0,.2.2Zm.53,5.7a.39.39,0,0,0,.39-.4.38.38,0,0,0-.39-.39.39.39,0,0,0-.4.39.4.4,0,0,0,.4.4Zm-16.54-5.36a.71.71,0,0,1-1.42,0,.71.71,0,0,1,1.42,0Zm-1.52,9.67a1.61,1.61,0,0,0-1.61,1.6,1.6,1.6,0,0,0-1.6-1.6,1.61,1.61,0,0,0,1.6-1.61,1.61,1.61,0,0,0,1.61,1.61Zm5.41,5.78a1.11,1.11,0,0,0-1.11,1.11,1.11,1.11,0,0,0-1.1-1.11,1.1,1.1,0,0,0,1.1-1.1,1.11,1.11,0,0,0,1.11,1.1Zm8.64-5.6a1.64,1.64,0,0,0-1.63,1.63,1.64,1.64,0,0,0-1.63-1.63,1.64,1.64,0,0,0,1.63-1.63,1.63,1.63,0,0,0,1.63,1.63Zm-1.26-6.92a.71.71,0,0,1-1.42,0,.71.71,0,1,1,1.42,0Zm-24.07,6.71a.35.35,0,1,1-.35.35.35.35,0,0,1,.35-.35Zm-15.38-.93a.47.47,0,1,1-.47.47.47.47,0,0,1,.47-.47Zm11.4,22.94a.84.84,0,0,1-.84-.83.83.83,0,0,1-.83.83.84.84,0,0,1,.83.84.85.85,0,0,1,.84-.84Zm-25.54.74a.84.84,0,0,1-.84-.83.83.83,0,1,0,0,1.66.84.84,0,0,1,.84-.83Zm30.7-16.67a1.93,1.93,0,0,1-1.92-1.92,1.93,1.93,0,0,1-1.92,1.92,1.93,1.93,0,0,1,1.92,1.92,1.92,1.92,0,0,1,1.92-1.92Zm-1.49,8.16a.83.83,0,0,1-.83-.83.83.83,0,0,1-.83.83.84.84,0,0,1,.83.84.84.84,0,0,1,.83-.84ZM96.56,167.72a.27.27,0,1,0-.27-.27.27.27,0,0,0,.27.27Zm5.06-2.53a.25.25,0,1,0-.24-.25.25.25,0,0,0,.24.25Zm6.57,27.27a.36.36,0,1,0-.36-.35.36.36,0,0,0,.36.35Zm-2-32a.63.63,0,0,0-.64.63.64.64,0,0,0-.64-.63.64.64,0,0,0,.64-.64.64.64,0,0,0,.64.64Zm-7.36,3.31a.64.64,0,0,0-.64.64.64.64,0,1,1,0-1.28.64.64,0,0,0,.64.64Zm3.52,13.94a1,1,0,0,0-1,1,1,1,0,0,0-1-1,1,1,0,0,0,1-1,1,1,0,0,0,1,1Zm6.65-11.3a.64.64,0,0,0-.64.63.63.63,0,0,0-.63-.63.64.64,0,0,0,.63-.64.64.64,0,0,0,.64.64Zm-49.44,1.22a.34.34,0,1,0,.34.34.34.34,0,0,0-.34-.34ZM75.67,180a.34.34,0,1,0,.34.34.34.34,0,0,0-.34-.34Zm-6.47,3.24a.31.31,0,1,0,.31.31.31.31,0,0,0-.31-.31Zm-10.92-4.37a.23.23,0,0,0-.23.23.24.24,0,0,0,.23.23.23.23,0,0,0,.23-.23.23.23,0,0,0-.23-.23Zm-9.09,7.21a.46.46,0,1,0,.46.45.46.46,0,0,0-.46-.45ZM72.82,185a.82.82,0,0,0,.81-.82.82.82,0,1,1,0,1.63.82.82,0,0,0-.81-.81Zm-4.5-17.83a1.27,1.27,0,0,0,1.28-1.27,1.28,1.28,0,0,0,1.28,1.27,1.29,1.29,0,0,0-1.28,1.28,1.28,1.28,0,0,0-1.28-1.28Zm-8.5,14.46a.82.82,0,0,0,.81-.82.82.82,0,1,1,0,1.63.82.82,0,0,0-.81-.81ZM29.63,165.39a.4.4,0,1,1,0,.79.4.4,0,0,1,0-.79Zm-.95,11.41a.3.3,0,1,1,0,.59.3.3,0,0,1,0-.59Zm20.15,5.26a.19.19,0,0,1,.2.19.2.2,0,1,1-.4,0,.19.19,0,0,1,.2-.19Zm.53-5.67a.39.39,0,0,1,.39.39.4.4,0,1,1-.79,0,.39.39,0,0,1,.4-.39Zm27.55,19.2a.71.71,0,0,1-.7-.71.71.71,0,0,1-.71.71.7.7,0,0,1,.71.7.7.7,0,0,1,.7-.7Zm-47.28-24.1a1.6,1.6,0,0,1-1.59-1.6,1.6,1.6,0,0,1-1.6,1.6,1.6,1.6,0,0,1,1.6,1.6,1.6,1.6,0,0,1,1.59-1.6Zm16.17,7.6a.7.7,0,0,1-.7-.71.71.71,0,1,0,0,1.41.7.7,0,0,1,.7-.7ZM1.66,161.21a.37.37,0,0,1,.36.37.36.36,0,0,1-.72,0,.37.37,0,0,1,.36-.37Zm5,.91a.49.49,0,0,1,.49.49.48.48,0,0,1-.49.48.47.47,0,0,1-.48-.48.48.48,0,0,1,.48-.49ZM37.32,194.6a.33.33,0,0,1,.33.33.33.33,0,0,1-.66,0,.33.33,0,0,1,.33-.33Zm-23.65-.78a.25.25,0,1,0-.24-.24.25.25,0,0,0,.24.24Zm-8.75-7.91a.37.37,0,0,0,.37-.36.38.38,0,0,0-.37-.37.37.37,0,0,0-.36.37.36.36,0,0,0,.36.36Zm21-6.35a.25.25,0,1,0-.25-.25.25.25,0,0,0,.25.25Zm2.4,7.62a.49.49,0,0,0,.49-.49.49.49,0,0,0-1,0,.49.49,0,0,0,.49.49ZM6.1,192.49a2,2,0,0,0-2,2,2,2,0,0,0-2-2,2,2,0,0,0,2-2,2,2,0,0,0,2,2Zm.54-26.64v9.24h2a3.15,3.15,0,0,0,2.35-.76h0a4,4,0,0,0,.84-2.86v-2.1a4.44,4.44,0,0,0-.64-2.73h0a2.37,2.37,0,0,0-2-.79Zm0,15.34v10.86h3a2.53,2.53,0,0,0,2-.69,3.41,3.41,0,0,0,.68-2.13h0v-.14a1.51,1.51,0,0,1,1.51-1.37,1.54,1.54,0,0,1-1.51-1.32v-1a6.29,6.29,0,0,0-.52-3,.33.33,0,0,0,0-.66.33.33,0,0,0-.31.2,3.43,3.43,0,0,0-2.6-.8H7.14a.86.86,0,0,1,.83-.6.86.86,0,0,1-.6-.24.36.36,0,0,0,0-.1.25.25,0,0,0-.24-.25.87.87,0,0,1-.05-.28A.81.81,0,0,1,7,180a.25.25,0,0,0-.14.22v0a.53.53,0,1,0,.16.92Zm33.19,17H24.16a.36.36,0,0,1-.36-.36V195a2,2,0,0,1,2-2,2,2,0,0,1-2-2V160.11h0a.36.36,0,0,1,.36-.36h5.92a.36.36,0,0,1,.36.36v20.3a.7.7,0,0,1-.7.7.7.7,0,0,1,.7.71v10.24h9.39a.36.36,0,0,1,.36.36v5.38h0a.36.36,0,0,1-.36.36Zm20.34-2a8.9,8.9,0,0,1-6.82,2.55,8.92,8.92,0,0,1-6.83-2.55c-1.57-1.68-2.37-4.15-2.37-7.28V172.23a1.64,1.64,0,0,1,1.28,1.59,1.63,1.63,0,0,1,1.63-1.62,1.63,1.63,0,0,1-1.63-1.63,1.63,1.63,0,0,1-1.28,1.59v-4.88a.29.29,0,0,0,.22.09.29.29,0,0,0,.29-.29.3.3,0,0,0-.29-.3.3.3,0,0,0-.22.1v-6.77h0a.36.36,0,0,1,.36-.36h5.93a.36.36,0,0,1,.36.36v29.19a3.81,3.81,0,0,0,.71,2.6,3.05,3.05,0,0,0,3.89,0,3.81,3.81,0,0,0,.71-2.6V160.11h0a.36.36,0,0,1,.36-.36h5.71a.36.36,0,0,1,.36.36v12.42a1.9,1.9,0,0,1-1.88,1.86,1.88,1.88,0,0,1,1.88,1.88v12.6c0,3.13-.8,5.6-2.37,7.28Zm24.41,2H68.42a.36.36,0,0,1-.36-.36V180a1.44,1.44,0,0,1,1.43-1.43,1.43,1.43,0,0,1-1.43-1.42h0v-17h0a.36.36,0,0,1,.36-.36H84.58a.36.36,0,0,1,.36.36v5.38h0a.36.36,0,0,1-.36.36H74.71v.94a.34.34,0,0,0-.14,0,.46.46,0,0,0,0,.91l.14,0v6a1.86,1.86,0,0,1-1.45.69,1.84,1.84,0,0,1,1.45.7h0a1.83,1.83,0,0,1,.39,1.14,1.84,1.84,0,0,1,.4-1.14h7a.36.36,0,0,1,.36.36v5.37h0a.36.36,0,0,1-.36.36H74.71v10.86h9.87a.36.36,0,0,1,.36.36v5.38h0a.36.36,0,0,1-.36.36Zm28.36-9.41c0,6.37-3.25,9.94-9.3,9.94a8.79,8.79,0,0,1-6.76-2.53c-1.55-1.69-2.32-4.16-2.32-7.3v-2.15h0a.36.36,0,0,1,.36-.36h5.6a.36.36,0,0,1,.36.36v2.59a3.77,3.77,0,0,0,.73,2.6,2.57,2.57,0,0,0,2,.7,2.53,2.53,0,0,0,2-.7v0a3.94,3.94,0,0,0,.73-2.69,7.34,7.34,0,0,0-1-4h0a19.15,19.15,0,0,0-3.89-4.25l0,0a23.28,23.28,0,0,1-5.22-6,11.27,11.27,0,0,1-1-2.26A1.45,1.45,0,0,1,96,174a1.45,1.45,0,0,1,1.45-1.45A1.45,1.45,0,0,1,96,171.09a1.44,1.44,0,0,1-.87,1.33,13.09,13.09,0,0,1-.44-3.49,10.22,10.22,0,0,1,2.39-7.19,9,9,0,0,1,6.8-2.53c3,0,5.18.88,6.68,2.53s2.3,4.16,2.3,7.3v1.55h0a.36.36,0,0,1-.36.36h-5.6a.36.36,0,0,1-.36-.36v-1.93a4,4,0,0,0-.69-2.64,2.38,2.38,0,0,0-1.91-.72A2.42,2.42,0,0,0,102,166a3.79,3.79,0,0,0-.68,2.54,5.82,5.82,0,0,0,0,.59h0a6.44,6.44,0,0,0,1,3,11.81,11.81,0,0,0,.72,1,.17.17,0,0,0-.1,0,.18.18,0,1,0,.18.18.17.17,0,0,0,0-.07,27.12,27.12,0,0,0,3.14,3.13l0,0a22.33,22.33,0,0,1,5.19,6,12.75,12.75,0,0,1,1.45,6.32Zm20.51,7.39a10.4,10.4,0,0,1-13.64,0c-1.57-1.68-2.37-4.15-2.37-7.28v-3.47a.33.33,0,0,0,.15,0,.35.35,0,0,0,0-.7.33.33,0,0,0-.15,0v-5.83a1.86,1.86,0,0,1,1.27-.49,1.87,1.87,0,0,1-1.27-.5V160.11h0a.36.36,0,0,1,.36-.36h5.92a.36.36,0,0,1,.36.36v11a1.35,1.35,0,0,1-.29-.83,1.31,1.31,0,0,1-1.31,1.31,1.31,1.31,0,0,1,1.31,1.3,1.35,1.35,0,0,1,.29-.83v10.69a1.33,1.33,0,0,1-.45.08,1.33,1.33,0,0,1,.45.07v5.13a.32.32,0,0,0-.2.3.3.3,0,0,0,.2.29v.65a3.81,3.81,0,0,0,.71,2.6,3.07,3.07,0,0,0,3.9,0,3.87,3.87,0,0,0,.7-2.6V160.11h0a.36.36,0,0,1,.36-.36h5.71a.36.36,0,0,1,.36.36v28.76c0,3.13-.8,5.6-2.37,7.28Zm13.43,2h-5.17a.36.36,0,0,1-.36-.36V160.11h0a.36.36,0,0,1,.36-.36h8.45a.37.37,0,0,1,.36.31l1.16,8.31a1.23,1.23,0,0,1-.9-1.19,1.25,1.25,0,0,1-1.24,1.24,1.24,1.24,0,0,1,1.24,1.23,1.24,1.24,0,0,1,.91-1.19l2.3,16.42,3.46-24.79a.36.36,0,0,1,.36-.34h8.45a.36.36,0,0,1,.36.36v37.69h0a.36.36,0,0,1-.36.36h-5.6a.36.36,0,0,1-.36-.36V173.34l-3.69,24.5a.37.37,0,0,1-.36.32h-5a.36.36,0,0,1-.35-.31l-3.7-24.51v24.45h0a.36.36,0,0,1-.36.36Zm31,0h-5.16a.36.36,0,0,1-.36-.36V168.14a1.67,1.67,0,0,1,.81,1.43,1.67,1.67,0,0,1,1.67-1.67,1.67,1.67,0,0,1-1.67-1.67,1.7,1.7,0,0,1-.81,1.44v-4.49a.29.29,0,0,0,.17,0,.3.3,0,1,0,0-.6.29.29,0,0,0-.17.05v-2.57h0a.36.36,0,0,1,.36-.36h8.45a.35.35,0,0,1,.35.31l.25,1.75a1.15,1.15,0,0,1-.3-.76,1.14,1.14,0,0,1-1.13,1.13,1.14,1.14,0,0,1,1.13,1.13,1.14,1.14,0,0,1,.39-.85L185,184.87l2.25-16.06a1.69,1.69,0,0,1,.28.92,1.65,1.65,0,0,1,1.64-1.64,1.65,1.65,0,0,1-1.63-1.42l.93-6.59a.36.36,0,0,1,.36-.34h8.45a.36.36,0,0,1,.36.36v37.69h0a.36.36,0,0,1-.36.36h-5.6a.36.36,0,0,1-.36-.36V173.34l-3.7,24.5a.36.36,0,0,1-.36.32h-4.95a.37.37,0,0,1-.36-.31l-3.7-24.51v24.45h0a.36.36,0,0,1-.36.36Zm42,0H203.74a.36.36,0,0,1-.36-.36v-1a.67.67,0,0,0,0-1.34V160.11h0a.36.36,0,0,1,.36-.36h16.15a.36.36,0,0,1,.36.36v5.38h0a.36.36,0,0,1-.36.36H210v9.24h7.77a.36.36,0,0,1,.36.36v1a.38.38,0,0,0-.19-.05.42.42,0,1,0,0,.83.38.38,0,0,0,.19-.05v3.65h0a.36.36,0,0,1-.36.36H210v10.86h9.87a.36.36,0,0,1,.36.36v5.38h0a.36.36,0,0,1-.36.36Zm11.37,0h-5.93a.37.37,0,0,1-.36-.36V172.5a1.72,1.72,0,0,1,1.71-1.68,1.71,1.71,0,0,1-1.71-1.7v-9h0a.36.36,0,0,1,.36-.36h8.78c3.17,0,5.45.75,6.95,2.26s2.19,3.77,2.19,6.77v2.32a10.81,10.81,0,0,1-1,4.93,5.9,5.9,0,0,1-2.26,2.41.3.3,0,0,0-.3-.23.32.32,0,0,0,0,.63.3.3,0,0,0,.29-.2,5.08,5.08,0,0,1,2.42,2.58h0a13.15,13.15,0,0,1,.89,5.39v6.62a19.44,19.44,0,0,0,.1,2.39v0a7.34,7.34,0,0,0,.5,2,.31.31,0,0,1,0,.17.36.36,0,0,1-.36.36h-6a.35.35,0,0,1-.34-.24l0,0c-.33-1-.54-1.62-.54-4.7v-6.89a5.37,5.37,0,0,0-.77-3.4,3,3,0,0,0-2.46-.87.34.34,0,0,0,.13-.27.35.35,0,0,0-.69,0,.34.34,0,0,0,.13.27h-1.38v5.38a1.87,1.87,0,0,1-1.86,1.86,1.87,1.87,0,0,1,1.86,1.86v6.69h0a.36.36,0,0,1-.36.36Zm.36-32.31v9.93h0a.31.31,0,1,0,.31.31.29.29,0,0,0-.07-.19h1.58a3.19,3.19,0,0,0,2.35-.76,4,4,0,0,0,.84-2.87v-2.9a4.55,4.55,0,0,0-.62-2.71l0,0a2.37,2.37,0,0,0-2-.79Z"/><path class="cls-1" d="M67.23,207.52H93v1.83H67.23v-1.83Zm83.71,0h25.78v1.83H150.94v-1.83Z"/><polygon class="cls-2" points="105.53 205.45 105.53 203.69 98.35 203.69 98.35 213.18 100.55 213.18 100.55 209.72 104.94 209.72 104.94 207.96 100.55 207.96 100.55 205.45 105.53 205.45 105.53 205.45"/><polygon class="cls-2" points="108.48 213.18 110.67 213.18 110.67 203.69 108.48 203.69 108.48 213.18 108.48 213.18"/><polygon class="cls-2" points="114.38 213.18 121.34 213.18 121.34 211.39 116.58 211.39 116.58 203.69 114.38 203.69 114.38 213.18 114.38 213.18"/><polygon class="cls-2" points="134.74 213.18 134.71 203.69 132.9 203.69 129.41 209.59 125.85 203.69 124.03 203.69 124.03 213.18 126.1 213.18 126.1 207.61 128.88 212.18 129.87 212.18 132.66 207.49 132.67 213.18 134.74 213.18 134.74 213.18"/><path class="cls-2" d="M141.57,213.35c2.71,0,4-1.36,4-2.95,0-3.48-5.52-2.27-5.52-4,0-.59.5-1.08,1.8-1.08a5.37,5.37,0,0,1,2.63.74l.68-1.67a6.42,6.42,0,0,0-3.3-.84c-2.7,0-4,1.35-4,3,0,3.53,5.52,2.31,5.52,4.09,0,.58-.53,1-1.83,1a5.52,5.52,0,0,1-3.13-1l-.75,1.66a6.78,6.78,0,0,0,3.87,1.1Z"/><path class="cls-2" d="M122,2.38A1.19,1.19,0,1,1,122,0h2.42a1.2,1.2,0,0,1-.07,2.39H122ZM116.49.22a1.19,1.19,0,1,1,.19,2.37l-.15,0-.42,0-.41,0-.41,0-.41,0-.41.05h-.11a1.19,1.19,0,1,1-.29-2.36l.13,0,.42,0,.43,0,.42,0,.43,0,.43,0ZM106.9,1.68a1.21,1.21,0,0,1,1.43.9A1.19,1.19,0,0,1,107.44,4l-.22,0-.39.09-.4.09-.39.1-.39.1-.39.1-.09,0a1.2,1.2,0,1,1-.63-2.31l.11,0,.4-.11.41-.1.41-.1.41-.1.4-.1.22-.05ZM97.63,4.51a1.19,1.19,0,0,1,.86,2.22l-.09,0L98,6.91l-.37.15-.37.15-.37.15-.37.15-.23.1a1.19,1.19,0,0,1-.94-2.19l.25-.1L96,5.16,96.39,5l.38-.15.38-.16.39-.15.09,0ZM88.85,8.64A1.2,1.2,0,0,1,90,10.72l-.22.12-.34.19-.34.2-.34.2-.34.2-.34.2-.1.07a1.19,1.19,0,0,1-1.25-2l.12-.07.35-.21.35-.21.35-.21.35-.2.36-.21.21-.12ZM80.76,14a1.19,1.19,0,1,1,1.46,1.88l-.25.19-.31.25-.31.24-.3.24-.31.25-.3.25,0,0a1.19,1.19,0,1,1-1.53-1.83l.06-.05.32-.26.31-.25.32-.25.32-.26.32-.25.25-.19Zm-7.24,6.44a1.19,1.19,0,0,1,1.71,1.65l-.25.26-.27.28-.27.29-.27.29-.26.28-.27.29v0a1.2,1.2,0,0,1-1.69.09,1.19,1.19,0,0,1-.09-1.68l0,0,.27-.3.28-.3.27-.29L73,21l.29-.29.25-.26Zm-6.26,7.4a1.2,1.2,0,0,1,1.93,1.41h0l-.24.32-.22.32-.23.32-.22.32-.23.32-.21.31a1.19,1.19,0,0,1-2-1.33l.22-.33.23-.33.23-.33.23-.34.24-.33.24-.33Zm-5.14,8.22a1.19,1.19,0,0,1,2.11,1.12l0,.07L64,37.6l-.18.35-.17.35-.18.35-.18.36-.12.24a1.19,1.19,0,1,1-2.14-1l.12-.26.18-.37.19-.37.18-.36.19-.37.19-.36,0-.08Zm-3.91,8.88a1.19,1.19,0,1,1,2.25.79l-.09.25-.13.38-.13.38-.12.38-.13.38-.12.38,0,.07a1.19,1.19,0,1,1-2.28-.71l0-.08.12-.4.13-.39.14-.4.13-.39.14-.39.08-.25Zm-2.59,9.35a1.19,1.19,0,0,1,2.34.46l0,.17-.08.4-.07.4-.08.4-.07.4-.07.4,0,.13a1.19,1.19,0,0,1-2.35-.37l0-.15.07-.41.08-.42.07-.42.08-.41.08-.42,0-.16ZM54.4,63.9a1.19,1.19,0,0,1,1.25-1.13A1.18,1.18,0,0,1,56.78,64v.28l0,.42,0,.42v1.22a1.2,1.2,0,0,1-2.39,0v-.84l0-.43,0-.43,0-.44V63.9Zm.16,9.69a1.19,1.19,0,1,1,2.37-.21v.14l0,.41,0,.41,0,.41,0,.41,0,.41v.13a1.19,1.19,0,1,1-2.36.3l0-.14,0-.43L54.69,75l0-.43,0-.43,0-.42v-.14Zm1.52,9.57a1.19,1.19,0,0,1,2.32-.55l.05.19.09.4.1.39.1.39.1.39.1.39,0,.12a1.19,1.19,0,0,1-2.3.64l0-.14-.1-.4-.11-.41-.1-.4-.1-.41-.1-.41-.05-.19ZM59,92.42a1.19,1.19,0,0,1,2.22-.88l0,.06.15.37.15.37.15.37.15.36.16.37.11.27a1.19,1.19,0,1,1-2.18,1l-.12-.28L59.62,94l-.16-.38-.16-.38-.15-.38L59,92.47l0,0Zm4.19,8.75A1.19,1.19,0,1,1,65.23,100l.1.18.2.34.2.34.2.34.2.33.21.34.09.14a1.19,1.19,0,0,1-2,1.26l-.09-.15-.21-.35-.21-.35-.21-.35-.21-.35-.2-.36-.11-.17Zm5.4,8a1.19,1.19,0,0,1,1.88-1.47l.17.22.24.3.24.31.25.3.25.31.25.3.07.08a1.19,1.19,0,0,1-1.82,1.54L70,111l-.26-.32-.26-.31-.25-.32-.26-.31-.25-.32-.17-.22Zm6.49,7.21a1.2,1.2,0,1,1,1.65-1.73l.22.22.29.27.29.27.28.26.29.27.29.26,0,0a1.19,1.19,0,0,1-1.58,1.79l-.06-.06-.3-.27-.3-.27-.3-.28-.3-.28-.29-.28-.23-.21Zm7.45,6.2a1.19,1.19,0,0,1,1.38-1.94l.29.21.33.23.32.22.32.23.33.22.32.22h0a1.2,1.2,0,0,1-1.32,2l0,0-.34-.23-.34-.23-.33-.23-.33-.23-.34-.24-.29-.21Zm8.25,5.08a1.19,1.19,0,0,1,1.1-2.11l0,0,.36.18.35.18.35.18.36.18.35.17.29.13a1.2,1.2,0,0,1-1,2.16l-.29-.15-.37-.17-.37-.19-.37-.18-.36-.19-.37-.18,0,0Zm8.91,3.85a1.18,1.18,0,0,1-.74-1.51,1.19,1.19,0,0,1,1.51-.74l.22.08.38.12.38.13.38.13.38.12.38.12.11,0a1.19,1.19,0,0,1-.7,2.28l-.12,0-.39-.13-.4-.13-.39-.13-.4-.13-.39-.13-.21-.08Zm9.36,2.53a1.19,1.19,0,1,1,.44-2.34l.14,0,.4.07.41.08.4.07.4.06.41.07.15,0a1.19,1.19,0,0,1-.36,2.36l-.17,0-.42-.07-.42-.07-.41-.07-.42-.07-.41-.08-.14,0Zm9.63,1.16a1.19,1.19,0,1,1,.1-2.38H119l.42,0h1.66a1.19,1.19,0,1,1,0,2.38h-.84l-.44,0h-.43l-.43,0Zm9.68-.22a1.19,1.19,0,0,1-.22-2.37h.12l.41,0,.41-.05.41,0,.41-.05.41-.05.15,0a1.19,1.19,0,1,1,.32,2.36l-.17,0-.42.06-.43,0-.42,0-.43,0-.43,0Zm9.57-1.59a1.19,1.19,0,0,1-.56-2.32l.16,0,.39-.1.39-.1.39-.1.39-.11.39-.1.15-.05a1.2,1.2,0,0,1,.65,2.3l-.16,0-.41.11-.4.11-.41.11-.4.1-.41.1-.16,0Zm9.24-2.95a1.19,1.19,0,0,1-.89-2.21h0l.37-.15L147,128l.36-.16.37-.15.36-.16.3-.13a1.2,1.2,0,0,1,1.58.6,1.21,1.21,0,0,1-.61,1.58l-.31.13-.38.17-.38.16-.38.16-.38.16-.38.15Zm8.71-4.25a1.19,1.19,0,0,1-1.2-2.06l.15-.08.34-.2.34-.2.33-.21.34-.2.33-.21.18-.11a1.19,1.19,0,0,1,1.27,2l-.18.11-.35.22-.35.21-.35.21-.35.21-.35.21-.15.08Zm8-5.45a1.19,1.19,0,0,1-1.48-1.87l.18-.14.31-.25.3-.24.31-.25.3-.25.3-.25.11-.1a1.19,1.19,0,0,1,1.55,1.81l-.12.11-.31.26-.32.26-.31.25-.32.26-.31.25-.19.15Zm7.17-6.54a1.2,1.2,0,0,1-1.69,0,1.19,1.19,0,0,1,0-1.68l.19-.2.27-.29.26-.28.27-.29.26-.29.26-.3.07-.08a1.2,1.2,0,0,1,1.68-.11,1.18,1.18,0,0,1,.11,1.68l-.08.1-.27.3-.27.3-.28.3-.27.3-.28.29-.18.2Zm6.15-7.49a1.19,1.19,0,0,1-1.66.29,1.21,1.21,0,0,1-.29-1.66l.19-.26.22-.32.23-.32.22-.33.21-.32.22-.33,0-.05a1.19,1.19,0,1,1,2,1.3l0,.06-.22.34-.23.34-.23.33-.23.34-.23.33-.19.26Zm5-8.28a1.19,1.19,0,0,1-2.12-1.09h0l.18-.35.18-.35.17-.36.18-.35.17-.36.15-.32a1.19,1.19,0,1,1,2.16,1l-.16.33L183,97l-.17.37-.19.37-.18.36-.19.37ZM186,89.55a1.19,1.19,0,0,1-2.26-.77l.06-.18.13-.38.13-.38.12-.38.12-.38.12-.39,0-.13a1.19,1.19,0,1,1,2.28.68l0,.15-.13.39-.12.4-.13.4-.13.39-.13.4-.06.18Zm2.46-9.38a1.19,1.19,0,0,1-2.34-.43l0-.12.07-.4.07-.4.07-.4.07-.41.06-.4,0-.18a1.19,1.19,0,1,1,2.36.35l0,.19-.07.42-.07.42-.07.41-.07.42-.08.42,0,.11Zm1.1-9.64a1.2,1.2,0,0,1-1.24,1.15,1.19,1.19,0,0,1-1.14-1.24V68.1a1.2,1.2,0,1,1,2.39,0v1.3l0,.43v.69Zm-.28-9.68a1.19,1.19,0,0,1-2.37.24V61l0-.41,0-.41,0-.41-.05-.41-.05-.41,0-.17a1.19,1.19,0,0,1,2.36-.34l0,.2.05.42.06.42.05.43,0,.42.05.43v.1Zm-1.66-9.56a1.19,1.19,0,1,1-2.31.58l0-.13-.1-.39-.1-.39-.11-.39-.1-.39-.11-.39-.05-.18A1.19,1.19,0,1,1,187,49l.06.19.11.4.11.41.11.4.11.4.1.41,0,.13Zm-3-9.22a1.19,1.19,0,1,1-2.2.91l-.15-.36-.16-.37-.15-.36-.16-.36-.16-.37-.15-.33a1.19,1.19,0,1,1,2.17-1l.16.34.16.38.17.38.16.38.16.38.15.36Zm-4.31-8.69a1.19,1.19,0,1,1-2.05,1.22l-.06-.11-.2-.34-.21-.34-.2-.33-.21-.34-.21-.33L177,32.6a1.19,1.19,0,0,1,2-1.28l.14.22.21.34.22.35.21.35.21.35.21.35.06.1Zm-5.5-8A1.19,1.19,0,0,1,173,26.9l-.12-.15-.24-.31-.25-.3-.25-.3-.25-.3-.26-.3-.12-.14a1.19,1.19,0,0,1,1.8-1.56l.13.15.26.31.27.31.26.31.25.32.26.31.12.15Zm-6.59-7.11A1.19,1.19,0,0,1,166.6,20l-.17-.16-.28-.26-.29-.27-.29-.26-.3-.26-.29-.26-.12-.1a1.19,1.19,0,1,1,1.57-1.8l.12.11.31.27.3.27.3.27.3.27.3.28.16.16Zm-7.52-6.11a1.19,1.19,0,1,1-1.36,2l-.23-.15-.32-.23-.33-.22-.32-.22-.33-.21-.33-.22-.08-.05a1.19,1.19,0,0,1,1.28-2l.1.06.34.23.34.22.34.23.33.23.34.23.23.16Zm-8.33-5a1.19,1.19,0,1,1-1.06,2.13L151,9.17,150.62,9l-.35-.17-.36-.17-.36-.17-.36-.16a1.19,1.19,0,0,1,1-2.17l.37.17.37.18.37.17.37.18L152,7l.33.17Zm-9-3.73a1.2,1.2,0,1,1-.75,2.27l-.15,0-.38-.13-.38-.12-.38-.12L141,5.2l-.38-.11L140.44,5a1.19,1.19,0,1,1,.67-2.28l.18,0,.4.12.39.12.4.13.4.12.39.13.15.05ZM134,1.07a1.19,1.19,0,0,1-.42,2.35l-.09,0-.4-.07-.4-.07-.41-.06-.4-.06-.41-.06-.2,0a1.19,1.19,0,0,1-1-1.35,1.18,1.18,0,0,1,1.34-1l.22,0,.42.06.42.07.41.06.42.07.42.08Z"/><path class="cls-1" d="M125.92,97.06c0,.54-1.48,3.25.07,3.38,1.61-.88.33-3.31-.07-3.38ZM71.08,68.19a1,1,0,1,0-1,1,1,1,0,0,0,1-1ZM73.29,47a2.77,2.77,0,0,1,2.77-2.76,2.78,2.78,0,0,1-2.77-2.77,2.77,2.77,0,0,1-2.76,2.77A2.77,2.77,0,0,1,73.29,47Zm13.9-9a1,1,0,1,0-1,1,1,1,0,0,0,1-1Zm27.57-20.11A1.15,1.15,0,1,0,113.61,19a1.15,1.15,0,0,0,1.15-1.15ZM175.94,83a1,1,0,1,0-1,1,1,1,0,0,0,1-1ZM160.41,104.7a2.42,2.42,0,0,1,2.41-2.41,2.41,2.41,0,0,1-2.41-2.41,2.42,2.42,0,0,1-2.41,2.41,2.42,2.42,0,0,1,2.41,2.41ZM149.49,71.82A1.15,1.15,0,1,0,148.34,73a1.15,1.15,0,0,0,1.15-1.15Zm19.68-16.51a1.59,1.59,0,1,0-1.58,1.59,1.58,1.58,0,0,0,1.58-1.59ZM74.32,92.59a4.48,4.48,0,0,1,4.46-4.47,4.48,4.48,0,0,1-4.46-4.46,4.48,4.48,0,0,1-4.47,4.46,4.48,4.48,0,0,1,4.47,4.47ZM99.09,30a5.86,5.86,0,0,1,5.83-5.84,5.84,5.84,0,0,1-5.83-5.83,5.87,5.87,0,0,1-5.84,5.84A5.85,5.85,0,0,1,99.09,30Zm40.81,81.85a4.24,4.24,0,0,1,4.23-4.23,4.24,4.24,0,0,1-4.23-4.23,4.25,4.25,0,0,1-4.24,4.23,4.25,4.25,0,0,1,4.24,4.23Zm8.92-18.94a1.35,1.35,0,1,0-1.34,1.35,1.35,1.35,0,0,0,1.34-1.35Zm14-8.1a6.48,6.48,0,0,1,6.46-6.46,6.48,6.48,0,0,1-6.46-6.46,6.48,6.48,0,0,1-6.46,6.46,6.48,6.48,0,0,1,6.46,6.46ZM134.29,19.52a1.08,1.08,0,1,1,2.15,0v6.87a1.08,1.08,0,0,1-2.15,0V19.52Zm6.43,7.71a1.07,1.07,0,1,1-2.07-.56l1.4-5.23a1.08,1.08,0,0,1,1.32-.77,1.09,1.09,0,0,1,.76,1.32l-1.41,5.24Zm-27,11.16a1.07,1.07,0,1,1,.55-2.07l5.24,1.4A1.08,1.08,0,0,1,119,39.8l-5.24-1.41Zm37.5,10a1.07,1.07,0,1,1,.55-2.07l5.24,1.4a1.08,1.08,0,0,1-.55,2.08l-5.24-1.41Zm-29.88,7.14,1.46-1.45a1.07,1.07,0,1,1,1.52,1.52l-2.26,2.26c-.26-.85-.49-1.62-.72-2.33ZM147.93,32a1.07,1.07,0,0,1-1.52-1.52l3.83-3.84a1.09,1.09,0,0,1,1.53,0,1.07,1.07,0,0,1,0,1.52L147.93,32ZM119,28.2a1.07,1.07,0,1,1,1.52-1.52l3.84,3.84A1.07,1.07,0,1,1,122.8,32L119,28.2Zm30,27L151.77,58a1.08,1.08,0,0,1-1.53,1.53L149,58.28a5,5,0,0,0-.09-3.13Zm2.82-15.35a1.09,1.09,0,0,1-1.32-.76,1.08,1.08,0,0,1,.77-1.32l5.24-1.4a1.07,1.07,0,1,1,.55,2.07l-5.24,1.41ZM128.6,22a1.08,1.08,0,1,1,2.08-.55l1.4,5.23a1.08,1.08,0,1,1-2.08.56L128.6,22Zm16,7.17a1.08,1.08,0,0,1-1.86-1.08l3.44-5.94a1.07,1.07,0,1,1,1.85,1.07l-3.43,5.95Zm-30.22,3.07a1.07,1.07,0,0,1,1.07-1.86l6,3.43a1.08,1.08,0,0,1,.39,1.47,1.06,1.06,0,0,1-1.46.39l-6-3.43Zm34.87,20.13a1.07,1.07,0,0,1,1.07-1.86l5.95,3.43a1.08,1.08,0,1,1-1.08,1.86l-5.94-3.43Zm-29.91-1.29,1-.57a1.08,1.08,0,0,1,1.08,1.86l-1,.6a15.06,15.06,0,0,0-1-1.89Zm31-15.41a1.07,1.07,0,0,1-1.07-1.86l5.94-3.43a1.08,1.08,0,1,1,1.08,1.86l-5.95,3.43ZM122.65,23.21a1.07,1.07,0,0,1,1.86-1.07l3.43,5.94a1.07,1.07,0,1,1-1.85,1.08l-3.44-5.95ZM117.07,42h1.6a1.08,1.08,0,0,1,1.07,1.08c0,.5-.09.81-.54.94a29.15,29.15,0,0,0-2.13-2Zm35,2.16a1.08,1.08,0,0,1,0-2.16h6.87a1.08,1.08,0,0,1,0,2.16Zm-19.21-1.63-5.71-5.21-4,5.21Zm.72,13.91-4.4-12h-6l10.39,12Zm1.79-.75,4.12-11.22h-8.23l4.11,11.22Zm1.8.75,10.38-12h-6l-4.39,12Zm10.47-13.91-4-5.21-5.71,5.21Zm-12.27-.35,6.19-5.63H129.18l6.18,5.63ZM80.51,114c-.14.43-.37.84-.51,1.21-.51,1.31,1.39,2.72,2.22.3,3.37-8.41-.1-26.53,9.67-25.15,1,1.79,6,9.39,4.25,14.14-.41,1.13-.26.74-.17,0a8,8,0,0,0-.14-2.3c-.22-1-.18-.52-.3,0-.77,3.79-5.8,16.13-6,18.28a1.31,1.31,0,1,0,2.61.24,44.25,44.25,0,0,1,2.32-10c.16,5.26,3.32,12.32,10.05,17.17a1.31,1.31,0,1,0,1.19-2.33C101,123.23,95.52,114.4,95.86,109c5.19-7.52-.26-15.43-2.27-19.09-.68-.83,2-2.7,3.51-.79,9.21,14.26,8.18,18.3,24.89,31.31a1.32,1.32,0,1,0,1.46-2.19,62.16,62.16,0,0,1-20.84-23.65c5.32,3.38,13.45,8.28,22,7.93a2,2,0,0,1,2.29,2.17c.45,8.31,2.55,19.15,4.37,24.35.93,2.71,3,1.53,2.46.51a2.68,2.68,0,0,1-.28-.93h0a62.11,62.11,0,1,0-73.56-61A63.13,63.13,0,0,0,80.51,114Zm13.2-63.88C96.49,45.82,104.65,42.37,110,45a1.31,1.31,0,0,0,1.19-2.34c-8.43-3.56-17.29,2.34-18.6,7-.46,1.65.4,1.62,1.12.48ZM87,58.65c-1.93,2.9-3.47,10.8,3.71,15.28a8.1,8.1,0,0,0,2.68,5c1.53,1.44,3.88,2.46,7.46,2.38-.25,2-1.65,4.62-3.28,5.27-6.45-2.76-12.85-3.49-17.08-7.77-9.09-9.19-1.33-20.71,1.47-29.09,2.38.55,4,.26,5.65-1.5,7.72-8.2,18.32-15.3,30.11-3.57-5.71,1.93-11.35,8.75-17,10.71-4.62,1.6-1.16,3.18.86,2.48,2.93-1,6-3.61,9-6.12,1.56-1.33,3.1-2.63,4.5-3.61,3,2,4.18,6,5.26,9.53a21.06,21.06,0,0,0,2.62,6.32c.4.6.48.53,1.09.11a1.71,1.71,0,0,1,2.75,1.42c0,1.18-.82,2.09-1.22,3.14a2.84,2.84,0,0,0-.33,1.84c3,10.84-2,12.22-7.13,13.63-4.15,1.08-4.73.56-7.28,6,1.46,3,2.41-2.47,4.1-3.17,3.42-1.41,10.77-2.15,11.89-6.58,1.07-.76.72-.34,3.44-1.34.38-.14,1.21,2.24,4.86,2.47-2.79-1.69-3.69-3.49-3.75-4-.44-3.73,3-4.94,2.55-11.72a10.12,10.12,0,0,1-2-3.62c-.65-2.08-2.64-3.46-1.37-3.72,2.23-.48,3.94,3.32,6.51,2.34,1.55-.79,3.42-2,4-3.4,1.25-3.26,3.49-2.31,2,.5a8.18,8.18,0,0,0,2.13-2.42c1.71-3,4.26,1,.81,5.58-2.1,2.78-4.73,3.69-6.07,7.34.45,11.41.25,8.65,0,15.19-3.94,4.57-8.19,6.75-14.33,11-.4,1.26-1.76,3.65-1.68,5.44-7,.36-21.54-6.37-25.72-11.61-.69-.6,2.83,0,4.35-7.14l.51-.06a1.31,1.31,0,0,0-.32-2.61c-.43,0-.81.09-1.15.11-3.22.22-5.18-.53-6.36-1.63-5.12-4.83.61-13.33,9.53-1a1,1,0,0,0,.13.16v0h.06l.08.07h0l0,0,0,0h0l.09.06h0a1.23,1.23,0,0,0,.78.15,1.3,1.3,0,0,0,.74-.34h0v0h0l.06-.08h0v0l0,0h0v0l0-.09h0v0h0a1.29,1.29,0,0,0,.15-.78C106.62,71.43,104.53,59,99,59c-2.4,0-1.22.4-.26,1.08,2.94,2.1,4.34,6.89,5.1,11-6-5.53-11.27-3.82-12.77-.13-5.49-4-3.77-9.31-3.33-12,.23-1.37.09-1.64-.77-.34Zm3.46,23a1.31,1.31,0,1,0,.9-2.46,18.27,18.27,0,0,1-1.84-.82c-12.89-6.73-7.39-19-5.69-23.23.65-1.63.56-1.86-.63-.42-3.56,4.31-8.51,18.88,5.1,26a17.44,17.44,0,0,0,2.16,1ZM117.66,57.4a1.08,1.08,0,1,0-.89-2c-3,1.38-5.58,4.48-4,7.13.58,1,.7.16.86-.54a6.43,6.43,0,0,1,4-4.62Zm-.89,3.11c-.63.47-.49,1.7.3,2.75s1.94,1.51,2.56,1,.49-1.7-.3-2.75-1.94-1.51-2.56-1Z"/></g></g></svg>