<svg xmlns="http://www.w3.org/2000/svg" viewBox="0 0 1924.7 1941.11"><defs><style>.cls-1{fill:#043f70;}</style></defs><title>Audio Wave</title><g id="Layer_2" data-name="Layer 2"><g id="Layer_1-2" data-name="Layer 1"><path class="cls-1" d="M981.78,104.15l-1.12-16.06a2.51,2.51,0,1,1,5-.35,2,2,0,0,1,0,.35l-1.12,16.06a1.38,1.38,0,0,1-2.76,0Z"/><path class="cls-1" d="M967.46,104.29l-1.37-16.05a2.5,2.5,0,0,1,5-.43c0,.12,0,.24,0,.35l-.87,16.09a1.38,1.38,0,0,1-2.76,0Z"/><path class="cls-1" d="M953.15,104.65l-1.63-16a2.51,2.51,0,0,1,5-.5c0,.11,0,.24,0,.35l-.61,16.09a1.39,1.39,0,0,1-1.44,1.33A1.37,1.37,0,0,1,953.15,104.65Z"/><path class="cls-1" d="M938.84,105.23l-1.88-16a2.51,2.51,0,0,1,5-.58c0,.11,0,.24,0,.35l-.36,16.1a1.39,1.39,0,0,1-2.76.13Z"/><path class="cls-1" d="M924.54,106l-2.12-16a2.5,2.5,0,0,1,5-.66,2.07,2.07,0,0,1,0,.35l-.11,16.11a1.39,1.39,0,0,1-2.76.17Z"/><path class="cls-1" d="M910.26,107.07l-2.38-15.93a2.51,2.51,0,1,1,5-.74,2.07,2.07,0,0,1,0,.35l.14,16.11a1.38,1.38,0,0,1-2.75.21Z"/><path class="cls-1" d="M896,108.33l-2.63-15.89a2.51,2.51,0,0,1,5-.82,2.07,2.07,0,0,1,0,.35l.4,16.1a1.38,1.38,0,0,1-2.75.26Z"/><path class="cls-1" d="M881.76,109.81,878.88,94a2.5,2.5,0,0,1,4.93-.89,2,2,0,0,1,0,.34l.65,16.1a1.38,1.38,0,0,1-2.74.3Z"/><path class="cls-1" d="M867.54,111.52,864.2,94a2.5,2.5,0,1,1,4.92-.94c0,.1,0,.22,0,.32l1.12,17.79a1.38,1.38,0,0,1-2.74.35Z"/><path class="cls-1" d="M853.35,113.44,849.7,95.75a2.51,2.51,0,0,1,4.91-1c0,.1,0,.21,0,.31l1.44,18a1.39,1.39,0,0,1-2.74.39Z"/><path class="cls-1" d="M839.19,115.59l-4-17.86a2.5,2.5,0,1,1,4.89-1.08,2.68,2.68,0,0,1,0,.3l1.75,18.21a1.38,1.38,0,0,1-2.73.43Z"/><path class="cls-1" d="M825.07,118,820.7,99.39a2.5,2.5,0,1,1,4.92-.86l2.17,19a1.37,1.37,0,0,1-1.21,1.53A1.39,1.39,0,0,1,825.07,118Z"/><path class="cls-1" d="M811,120.56,805.93,100a2.5,2.5,0,1,1,4.86-1.2,2,2,0,0,1,.05.26l2.87,21a1.39,1.39,0,0,1-2.72.52Z"/><path class="cls-1" d="M797,123.37l-5.71-22.05a2.5,2.5,0,1,1,4.85-1.25,2,2,0,0,1,0,.24l3.52,22.5a1.38,1.38,0,0,1-1.16,1.58A1.39,1.39,0,0,1,797,123.37Z"/><path class="cls-1" d="M783,126.41l-6-21.71a2.5,2.5,0,1,1,4.83-1.33,2,2,0,0,1,.05.24l3.81,22.2a1.37,1.37,0,0,1-1.12,1.59A1.39,1.39,0,0,1,783,126.41Z"/><path class="cls-1" d="M769,129.66l-7.14-24.92a2.5,2.5,0,1,1,4.81-1.38,1.6,1.6,0,0,1,0,.21l5,25.45a1.38,1.38,0,0,1-2.68.64Z"/><path class="cls-1" d="M755.13,133.14l-8-26.56a2.5,2.5,0,1,1,4.79-1.44,1.33,1.33,0,0,1,0,.19l5.81,27.12a1.38,1.38,0,0,1-2.67.69Z"/><path class="cls-1" d="M741.29,136.83l-8.81-28a2.5,2.5,0,1,1,4.77-1.5,1.21,1.21,0,0,1,0,.18L744,136.1a1.38,1.38,0,0,1-2.66.73Z"/><path class="cls-1" d="M727.52,140.73l-9.63-29.12a2.5,2.5,0,1,1,4.75-1.57,1.21,1.21,0,0,1,.05.18L730.17,140a1.4,1.4,0,0,1-1,1.68A1.38,1.38,0,0,1,727.52,140.73Z"/><path class="cls-1" d="M713.8,144.86l-10.32-29.75a2.5,2.5,0,1,1,4.73-1.64,1.54,1.54,0,0,0,0,.17l8.18,30.41a1.38,1.38,0,0,1-2.64.81Z"/><path class="cls-1" d="M700.16,149.2l-10.32-28.13a2.5,2.5,0,0,1,4.7-1.72l.06.18,8.18,28.81a1.38,1.38,0,0,1-2.62.86Z"/><path class="cls-1" d="M686.58,153.75l-10.77-28a2.5,2.5,0,0,1,4.67-1.8l.06.18,8.65,28.74a1.39,1.39,0,0,1-.92,1.73A1.4,1.4,0,0,1,686.58,153.75Z"/><path class="cls-1" d="M673.08,158.51l-11.39-28.32a2.5,2.5,0,1,1,4.64-1.87c0,.06,0,.12.07.17l9.28,29.09a1.38,1.38,0,0,1-2.6.93Z"/><path class="cls-1" d="M659.65,163.49,649,138.37a2.5,2.5,0,0,1,4.61-2,1.46,1.46,0,0,1,.07.19l8.6,25.91a1.39,1.39,0,0,1-2.59,1Z"/><path class="cls-1" d="M646.31,168.68l-11-24.83a2.5,2.5,0,1,1,4.58-2c0,.06,0,.12.07.19l9,25.65a1.37,1.37,0,0,1-.84,1.76A1.39,1.39,0,0,1,646.31,168.68Z"/><path class="cls-1" d="M633,174.07l-9.65-20.37a2.51,2.51,0,0,1,4.53-2.15l.09.23L635.59,173a1.38,1.38,0,0,1-.83,1.77A1.4,1.4,0,0,1,633,174.07Z"/><path class="cls-1" d="M619.87,179.67,609.72,159a2.5,2.5,0,0,1,4.49-2.21l.1.22,8.09,21.53a1.38,1.38,0,0,1-2.53,1.09Z"/><path class="cls-1" d="M606.78,185.48,598,168.76a2.5,2.5,0,1,1,4.44-2.32,2.21,2.21,0,0,1,.12.27l6.74,17.64a1.38,1.38,0,0,1-2.52,1.13Z"/><path class="cls-1" d="M593.79,191.5l-8.58-15.59a2.5,2.5,0,0,1,4.39-2.41c0,.09.1.19.14.28l6.54,16.54a1.38,1.38,0,0,1-2.49,1.18Z"/><path class="cls-1" d="M580.89,197.72l-7.81-13.4a2.5,2.5,0,0,1,4.33-2.52,2.39,2.39,0,0,1,.16.32l5.8,14.38a1.39,1.39,0,0,1-2.48,1.22Z"/><path class="cls-1" d="M568.09,204.14,560.15,191a2.51,2.51,0,0,1,4.29-2.6,3.41,3.41,0,0,1,.17.33l5.94,14.12a1.39,1.39,0,0,1-2.46,1.26Z"/><path class="cls-1" d="M555.39,210.76l-7.87-12.48a2.51,2.51,0,0,1,4.24-2.68,2.79,2.79,0,0,1,.18.34l5.89,13.52a1.39,1.39,0,0,1-2.44,1.3Z"/><path class="cls-1" d="M542.8,217.57l-8.35-12.86a2.51,2.51,0,0,1,4.21-2.73c.06.1.13.22.18.32l6.38,13.94a1.38,1.38,0,0,1-2.42,1.33Z"/><path class="cls-1" d="M530.32,224.59,521.85,212a2.51,2.51,0,1,1,4.16-2.8,2.58,2.58,0,0,1,.18.32l6.53,13.7a1.39,1.39,0,0,1-.66,1.85A1.38,1.38,0,0,1,530.32,224.59Z"/><path class="cls-1" d="M518,231.8l-7.66-10.75a2.51,2.51,0,0,1,4.09-2.91,3.6,3.6,0,0,1,.22.37l5.72,11.88A1.38,1.38,0,0,1,518,231.8Z"/><path class="cls-1" d="M505.69,239.2,498.76,230a2.51,2.51,0,0,1,4-3,2.65,2.65,0,0,1,.26.42l5,10.33a1.39,1.39,0,0,1-2.36,1.44Z"/><path class="cls-1" d="M493.55,246.8l-7-9a2.51,2.51,0,0,1,4-3.09,2.19,2.19,0,0,1,.26.41l5.12,10.15a1.39,1.39,0,0,1-2.34,1.48Z"/><path class="cls-1" d="M481.54,254.58l-6.66-8.09a2.51,2.51,0,1,1,4.18-2.75l4.78,9.33a1.38,1.38,0,0,1-2.3,1.51Z"/><path class="cls-1" d="M469.64,262.56l-7.24-8.67a2.51,2.51,0,0,1,3.86-3.22,3.71,3.71,0,0,1,.28.41l5.39,9.93a1.39,1.39,0,0,1-2.29,1.55Z"/><path class="cls-1" d="M457.88,270.72l-8.11-9.6a2.51,2.51,0,1,1,3.83-3.24,3.47,3.47,0,0,1,.26.37l6.28,10.88a1.39,1.39,0,0,1-2.26,1.59Z"/><path class="cls-1" d="M446.24,279.06l-8.5-9.8a2.51,2.51,0,0,1,3.79-3.29,2.8,2.8,0,0,1,.25.35l6.69,11.12a1.38,1.38,0,0,1-2.23,1.62Z"/><path class="cls-1" d="M434.73,287.58l-7.28-7.83a2.52,2.52,0,0,1,3.69-3.42,2.68,2.68,0,0,1,.31.42l5.49,9.18a1.38,1.38,0,0,1-.48,1.9A1.4,1.4,0,0,1,434.73,287.58Z"/><path class="cls-1" d="M423.37,296.29l-7.63-8a2.51,2.51,0,1,1,3.64-3.47,2,2,0,0,1,.31.4l5.86,9.37a1.39,1.39,0,0,1-2.18,1.7Z"/><path class="cls-1" d="M412.13,305.17l-6.85-6.76a2.52,2.52,0,0,1,3.54-3.59,3.24,3.24,0,0,1,.37.46l5.1,8.16a1.39,1.39,0,0,1-2.16,1.73Z"/><path class="cls-1" d="M401,314.23l-8-8a2.51,2.51,0,1,1,3.54-3.57,3.68,3.68,0,0,1,.31.38l6.32,9.4a1.38,1.38,0,0,1-.37,1.92A1.4,1.4,0,0,1,401,314.23Z"/><path class="cls-1" d="M390.1,323.46l-7.33-6.86a2.52,2.52,0,1,1,3.44-3.68,2.93,2.93,0,0,1,.36.43l5.63,8.31a1.39,1.39,0,0,1-2.1,1.8Z"/><path class="cls-1" d="M379.3,332.86l-8-7.33a2.52,2.52,0,0,1,3.41-3.7,2.07,2.07,0,0,1,.34.39l6.28,8.81a1.39,1.39,0,0,1-2.07,1.83Z"/><path class="cls-1" d="M368.65,342.43l-8.12-7.26a2.51,2.51,0,1,1,3.7-3.37l6.46,8.77a1.39,1.39,0,0,1-.3,1.94A1.37,1.37,0,0,1,368.65,342.43Z"/><path class="cls-1" d="M358.15,352.16l-8.48-7.39A2.51,2.51,0,0,1,353,341a2,2,0,0,1,.34.37l6.85,8.92a1.39,1.39,0,0,1-.26,2A1.37,1.37,0,0,1,358.15,352.16Z"/><path class="cls-1" d="M347.8,362.06,340.37,356a2.52,2.52,0,0,1,3.18-3.9,2.71,2.71,0,0,1,.41.42l5.82,7.62a1.39,1.39,0,0,1-2,1.92Z"/><path class="cls-1" d="M337.61,372.12l-8.49-6.91a2.51,2.51,0,1,1,3.17-3.9,3.06,3.06,0,0,1,.36.36l6.91,8.5a1.39,1.39,0,0,1-1.95,1.95Z"/><path class="cls-1" d="M327.58,382.34l-8.07-6.26a2.52,2.52,0,0,1,3.09-4,2.87,2.87,0,0,1,.39.39l6.51,7.87a1.39,1.39,0,0,1-1.92,2Z"/><path class="cls-1" d="M317.71,392.72l-8.58-6.53a2.51,2.51,0,0,1,3-4,2.16,2.16,0,0,1,.38.36l7.05,8.15a1.38,1.38,0,0,1-.14,2A1.4,1.4,0,0,1,317.71,392.72Z"/><path class="cls-1" d="M308,403.24l-9.4-7a2.51,2.51,0,0,1,3-4,2.82,2.82,0,0,1,.36.33l7.89,8.69a1.39,1.39,0,0,1-.1,2A1.36,1.36,0,0,1,308,403.24Z"/><path class="cls-1" d="M298.47,413.93l-9.35-6.76a2.51,2.51,0,1,1,2.94-4.07,2.83,2.83,0,0,1,.37.32l7.87,8.43a1.39,1.39,0,0,1-1.83,2.08Z"/><path class="cls-1" d="M289.11,424.75l-8.74-6a2.51,2.51,0,1,1,2.84-4.14,1.89,1.89,0,0,1,.4.34l7.29,7.69a1.4,1.4,0,0,1,0,2A1.38,1.38,0,0,1,289.11,424.75Z"/><path class="cls-1" d="M279.91,435.73l-8.89-5.9a2.51,2.51,0,1,1,2.78-4.19,2.13,2.13,0,0,1,.4.33l7.47,7.63a1.38,1.38,0,0,1,0,2A1.39,1.39,0,0,1,279.91,435.73Z"/><path class="cls-1" d="M270.89,446.85l-9.57-6.23a2.51,2.51,0,0,1,2.74-4.21,3,3,0,0,1,.39.31l8.16,8a1.39,1.39,0,0,1-1.72,2.16Z"/><path class="cls-1" d="M262,458.1l-9.37-5.85a2.51,2.51,0,1,1,2.66-4.26,3,3,0,0,1,.4.31l8,7.62A1.39,1.39,0,0,1,262,458.1Z"/><path class="cls-1" d="M253.37,469.5,244.19,464a2.52,2.52,0,1,1,2.58-4.32,2.73,2.73,0,0,1,.42.32l7.84,7.28a1.39,1.39,0,0,1-1.66,2.21Z"/><path class="cls-1" d="M244.88,481l-9.35-5.41a2.51,2.51,0,1,1,2.51-4.35,2.55,2.55,0,0,1,.43.3l8,7.23a1.38,1.38,0,0,1-1.62,2.23Z"/><path class="cls-1" d="M236.57,492.69l-9.28-5.16a2.51,2.51,0,1,1,2.44-4.39,2.55,2.55,0,0,1,.43.3l8,7a1.39,1.39,0,0,1-1.59,2.26Z"/><path class="cls-1" d="M228.45,504.48l-9.69-5.23a2.51,2.51,0,1,1,2.39-4.42,2.09,2.09,0,0,1,.42.29L230,502.2a1.39,1.39,0,0,1-1.55,2.28Z"/><path class="cls-1" d="M220.51,516.4,211,511.47a2.52,2.52,0,0,1,2.31-4.47,2.49,2.49,0,0,1,.43.29l8.33,6.8a1.39,1.39,0,0,1-1.52,2.31Z"/><path class="cls-1" d="M212.76,528.44l-8.62-4.15a2.51,2.51,0,1,1,2.18-4.53,2.33,2.33,0,0,1,.5.31l7.42,6a1.39,1.39,0,0,1-1.48,2.33Z"/><path class="cls-1" d="M205.2,540.6l-9.86-4.73a2.51,2.51,0,1,1,2.17-4.53,2.16,2.16,0,0,1,.44.27l8.7,6.64a1.39,1.39,0,0,1-1.45,2.35Z"/><path class="cls-1" d="M197.84,552.88l-9.09-4.07a2.52,2.52,0,1,1,2.06-4.59,3,3,0,0,1,.49.28l7.94,6a1.39,1.39,0,0,1-1.4,2.38Z"/><path class="cls-1" d="M190.66,565.27l-8.44-3.52a2.52,2.52,0,0,1,1.95-4.65,3,3,0,0,1,.53.3l7.33,5.47a1.39,1.39,0,0,1-1.37,2.4Z"/><path class="cls-1" d="M183.69,577.78l-8.82-3.57a2.52,2.52,0,0,1,1.89-4.67,2.59,2.59,0,0,1,.52.29l7.74,5.53a1.39,1.39,0,0,1-1.33,2.42Z"/><path class="cls-1" d="M176.91,590.39l-8.12-3a2.53,2.53,0,0,1,1.77-4.73,2.85,2.85,0,0,1,.57.31l7.07,5a1.39,1.39,0,0,1-1.29,2.44Z"/><path class="cls-1" d="M170.33,603.11l-9.23-3.45a2.52,2.52,0,1,1,1.76-4.72,3.5,3.5,0,0,1,.51.26l8.21,5.44a1.39,1.39,0,0,1-1.25,2.47Z"/><path class="cls-1" d="M163.94,615.92l-9.46-3.38a2.52,2.52,0,0,1,1.7-4.74,2.13,2.13,0,0,1,.5.25l8.48,5.39a1.39,1.39,0,0,1-1.22,2.48Z"/><path class="cls-1" d="M157.77,628.84l-11.87-4.35a2.51,2.51,0,1,1,1.73-4.71,2.93,2.93,0,0,1,.4.19l10.91,6.37a1.39,1.39,0,0,1-1.17,2.5Z"/><path class="cls-1" d="M151.79,641.85l-12.34-4.34a2.51,2.51,0,0,1,1.67-4.73,2.71,2.71,0,0,1,.39.17l11.42,6.39a1.38,1.38,0,0,1-1.14,2.51Z"/><path class="cls-1" d="M146,655l-12.62-4.24A2.51,2.51,0,1,1,135,646a1.92,1.92,0,0,1,.39.17l11.73,6.29A1.39,1.39,0,0,1,146,655Z"/><path class="cls-1" d="M140.46,668.15l-13.62-4.43A2.51,2.51,0,1,1,128.4,659l.36.15,12.75,6.5a1.38,1.38,0,0,1-1,2.55Z"/><path class="cls-1" d="M135.1,681.43l-14.76-4.64a2.5,2.5,0,0,1,1.5-4.78,2.37,2.37,0,0,1,.34.13l13.94,6.72a1.39,1.39,0,0,1-1,2.57Z"/><path class="cls-1" d="M130,694.79l-14.66-4.34a2.5,2.5,0,1,1,1.43-4.8,2,2,0,0,1,.34.13l13.86,6.43a1.38,1.38,0,0,1-1,2.58Z"/><path class="cls-1" d="M125,708.23l-19-5.64a2.5,2.5,0,1,1,1.43-4.8l.26.1L126,705.64a1.38,1.38,0,0,1-.94,2.59Z"/><path class="cls-1" d="M120.3,721.75l-22.25-6.43a2.5,2.5,0,0,1,1.39-4.81l.23.08,21.52,8.55a1.38,1.38,0,0,1,.78,1.79A1.39,1.39,0,0,1,120.3,721.75Z"/><path class="cls-1" d="M115.79,735.34,90,728.14a2.5,2.5,0,0,1,1.35-4.82l.2.06,25.09,9.33a1.38,1.38,0,0,1-.85,2.63Z"/><path class="cls-1" d="M111.49,749l-29.91-8a2.5,2.5,0,1,1,1.29-4.83l.18.05,29.25,10.17a1.38,1.38,0,0,1-.81,2.64Z"/><path class="cls-1" d="M107.43,762.73,71.8,754.25A2.5,2.5,0,1,1,73,749.38l.14,0,35.05,10.64a1.38,1.38,0,0,1-.72,2.67Z"/><path class="cls-1" d="M103.54,776.51l-39.88-9.75a2.5,2.5,0,0,1,1.19-4.86l.13,0,39.29,11.91a1.38,1.38,0,0,1-.73,2.66Z"/><path class="cls-1" d="M99.89,790.36,54.72,779.91A2.5,2.5,0,1,1,55.85,775l.12,0,44.61,12.61a1.38,1.38,0,0,1-.69,2.68Z"/><path class="cls-1" d="M96.46,804.26,44.93,793A2.5,2.5,0,0,1,46,788.15l.11,0,51,13.39a1.38,1.38,0,0,1-.65,2.69Z"/><path class="cls-1" d="M93.25,818.21l-58.7-12a2.5,2.5,0,1,1,1-4.9l.09,0,58.21,14.16a1.38,1.38,0,0,1-.6,2.69Z"/><path class="cls-1" d="M90.26,832.21l-63.1-11.92a2.5,2.5,0,0,1,.93-4.91h.08l62.65,14.12a1.38,1.38,0,0,1-.56,2.7Z"/><path class="cls-1" d="M87.49,846.26,17.19,834a2.5,2.5,0,0,1,.86-4.92h.08L88,843.55a1.38,1.38,0,0,1-.51,2.71Z"/><path class="cls-1" d="M84.93,860.35,11.06,848.59a2.5,2.5,0,0,1,.79-4.93h.07l73.49,14a1.38,1.38,0,0,1-.48,2.72Z"/><path class="cls-1" d="M82.61,874.48,6.42,863.55a2.5,2.5,0,1,1,.71-4.95H7.2L83,871.75a1.38,1.38,0,0,1-.43,2.73Z"/><path class="cls-1" d="M80.5,888.64,3,878.74a2.5,2.5,0,0,1,.64-5h.07l77.17,12.12a1.38,1.38,0,0,1-.39,2.73Z"/><path class="cls-1" d="M78.63,902.84,2.26,895.29a2.5,2.5,0,1,1,.49-5h.07l76.12,9.76a1.38,1.38,0,0,1-.31,2.75Z"/><path class="cls-1" d="M77,917.06,2.26,909.94a2.5,2.5,0,0,1,.48-5h.07l74.44,9.34a1.38,1.38,0,0,1-.3,2.75Z"/><path class="cls-1" d="M75.51,931.3,2.3,925.51a2.5,2.5,0,0,1,.4-5h.07l73,8a1.38,1.38,0,0,1-.26,2.75Z"/><path class="cls-1" d="M74.3,945.57l-70.18-4.4a2.5,2.5,0,0,1,.31-5h.08l70,6.63a1.38,1.38,0,0,1-.22,2.75Z"/><path class="cls-1" d="M73.31,959.86,10.13,957a2.5,2.5,0,1,1,.23-5h.08l63,5.09a1.38,1.38,0,0,1-.17,2.76Z"/><path class="cls-1" d="M72.55,974.15l-59.14-1.66a2.5,2.5,0,0,1,.14-5h.09l59,3.9a1.38,1.38,0,0,1-.12,2.76Z"/><path class="cls-1" d="M72,988.46,20.74,988a2.5,2.5,0,1,1,.05-5h.11l51.19,2.73a1.38,1.38,0,0,1-.09,2.76Z"/><path class="cls-1" d="M71.69,1002.78l-45,.41a2.5,2.5,0,0,1,0-5h.12L71.73,1000a1.38,1.38,0,0,1,0,2.76Z"/><path class="cls-1" d="M71.6,1017.1l-38.45,1.11a2.5,2.5,0,1,1-.15-5h.15l38.45,1.12a1.39,1.39,0,0,1,0,2.77Z"/><path class="cls-1" d="M71.73,1031.41,42.67,1033a2.5,2.5,0,1,1-.27-5h.19l29.1.66a1.38,1.38,0,0,1,0,2.76Z"/><path class="cls-1" d="M72.09,1045.73,48,1047.6a2.5,2.5,0,1,1-.39-5h.24L72,1043a1.38,1.38,0,0,1,.09,2.76Z"/><path class="cls-1" d="M72.67,1060l-16,1.88a2.51,2.51,0,0,1-.59-5l.35,0,16.11.37a1.38,1.38,0,0,1,.12,2.75Z"/><path class="cls-1" d="M73.48,1074.33l-12.19,1.89a2.51,2.51,0,1,1-.77-5,2.37,2.37,0,0,1,.46,0l12.33.34a1.39,1.39,0,0,1,.17,2.76Z"/><path class="cls-1" d="M74.52,1088.61l-11.48,2a2.51,2.51,0,1,1-.39-5l11.65.21a1.39,1.39,0,0,1,.22,2.75Z"/><path class="cls-1" d="M75.77,1102.87,65,1105a2.51,2.51,0,1,1-1-4.93,2.26,2.26,0,0,1,.51,0l11,.09a1.38,1.38,0,0,1,.26,2.74Z"/><path class="cls-1" d="M77.25,1117.12l-10,2.23a2.52,2.52,0,1,1-1.1-4.91,2.57,2.57,0,0,1,.55-.06H77a1.39,1.39,0,0,1,.3,2.75Z"/><path class="cls-1" d="M79,1131.33l-10,2.4a2.51,2.51,0,0,1-1.17-4.89,2.05,2.05,0,0,1,.54-.07l10.3-.18A1.4,1.4,0,0,1,80,1130,1.39,1.39,0,0,1,79,1131.33Z"/><path class="cls-1" d="M80.89,1145.52l-10.32,2.6a2.51,2.51,0,1,1-1.23-4.87,2.34,2.34,0,0,1,.52-.08l10.64-.38a1.39,1.39,0,0,1,.39,2.73Z"/><path class="cls-1" d="M83,1159.68l-10.62,2.81a2.51,2.51,0,1,1-1.29-4.86,2.85,2.85,0,0,1,.51-.08l11-.6a1.39,1.39,0,0,1,1.46,1.31A1.4,1.4,0,0,1,83,1159.68Z"/><path class="cls-1" d="M85.41,1173.8l-11.27,3.1a2.51,2.51,0,0,1-1.34-4.84,2.67,2.67,0,0,1,.48-.08l11.65-.9a1.39,1.39,0,0,1,.48,2.72Z"/><path class="cls-1" d="M88,1187.88l-11.21,3.28a2.51,2.51,0,1,1-1.41-4.82,2,2,0,0,1,.47-.09l11.64-1.08a1.38,1.38,0,0,1,.51,2.71Z"/><path class="cls-1" d="M90.82,1201.92,80,1205.31a2.51,2.51,0,1,1-1.5-4.79,2.73,2.73,0,0,1,.48-.1l11.33-1.2a1.39,1.39,0,0,1,.56,2.7Z"/><path class="cls-1" d="M93.85,1215.91l-11.27,3.67A2.51,2.51,0,1,1,81,1214.8a3.94,3.94,0,0,1,.47-.1l11.76-1.48a1.38,1.38,0,0,1,.6,2.69Z"/><path class="cls-1" d="M97.11,1229.86l-7.55,3a2.53,2.53,0,1,1-1.85-4.7,2.8,2.8,0,0,1,.68-.16l8.07-.79a1.4,1.4,0,0,1,.65,2.69Z"/><path class="cls-1" d="M100.58,1243.75l-8.44,3.32a2.52,2.52,0,0,1-1.84-4.69,2.11,2.11,0,0,1,.6-.15l9-1.16a1.39,1.39,0,0,1,.69,2.68Z"/><path class="cls-1" d="M104.27,1257.58l-13.48,4.85a2.51,2.51,0,0,1-1.7-4.72,2.66,2.66,0,0,1,.38-.1l14.07-2.69a1.38,1.38,0,0,1,.73,2.66Z"/><path class="cls-1" d="M108.18,1271.36l-10.46,4.2a2.51,2.51,0,0,1-1.88-4.66,2.9,2.9,0,0,1,.48-.14l11.09-2a1.39,1.39,0,0,1,.77,2.65Z"/><path class="cls-1" d="M112.3,1285.07l-9.16,4a2.51,2.51,0,1,1-2-4.61,2.12,2.12,0,0,1,.54-.17l9.82-1.85a1.39,1.39,0,0,1,.81,2.64Z"/><path class="cls-1" d="M116.64,1298.72l-9.37,4.22a2.52,2.52,0,0,1-2.07-4.59,3.5,3.5,0,0,1,.52-.17l10.07-2.09a1.38,1.38,0,0,1,1.64,1.08A1.4,1.4,0,0,1,116.64,1298.72Z"/><path class="cls-1" d="M121.19,1312.29l-10,4.61a2.51,2.51,0,1,1-2.1-4.56,2.74,2.74,0,0,1,.48-.17l10.74-2.49a1.39,1.39,0,0,1,.89,2.61Z"/><path class="cls-1" d="M126,1325.79l-10.44,5a2.51,2.51,0,0,1-2.15-4.54,2.1,2.1,0,0,1,.46-.16L125,1323.2a1.38,1.38,0,0,1,.94,2.59Z"/><path class="cls-1" d="M130.93,1339.22l-11.41,5.51a2.51,2.51,0,0,1-2.18-4.52,3.47,3.47,0,0,1,.41-.16l12.21-3.41a1.38,1.38,0,0,1,1,2.58Z"/><path class="cls-1" d="M136.12,1352.57l-12,6a2.51,2.51,0,0,1-2.23-4.5,2.62,2.62,0,0,1,.39-.15L135.1,1350a1.38,1.38,0,0,1,1.73.92A1.4,1.4,0,0,1,136.12,1352.57Z"/><path class="cls-1" d="M141.51,1365.83l-13.14,6.66a2.51,2.51,0,0,1-2.27-4.48l.35-.14,14-4.59a1.38,1.38,0,0,1,1,2.55Z"/><path class="cls-1" d="M147.12,1379l-14.3,7.4a2.51,2.51,0,1,1-2.31-4.45,2.15,2.15,0,0,1,.32-.13l15.19-5.36a1.39,1.39,0,0,1,1.1,2.54Z"/><path class="cls-1" d="M152.93,1392.09l-17.7,9.22a2.5,2.5,0,0,1-2.32-4.44l.26-.11,18.62-7.18a1.38,1.38,0,0,1,1.14,2.51Z"/><path class="cls-1" d="M158.94,1405.09l-18.68,10a2.51,2.51,0,0,1-2.37-4.42l.24-.11,19.64-8a1.38,1.38,0,0,1,1.17,2.5Z"/><path class="cls-1" d="M165.16,1418l-19.45,10.77a2.5,2.5,0,0,1-2.43-4.38l.23-.11,20.43-8.76a1.38,1.38,0,0,1,1.82.72A1.4,1.4,0,0,1,165.16,1418Z"/><path class="cls-1" d="M171.58,1430.78l-24.43,13.71a2.5,2.5,0,1,1-2.45-4.37l.18-.09,25.45-11.71a1.38,1.38,0,0,1,1.25,2.46Z"/><path class="cls-1" d="M178.2,1443.48l-25.57,14.81a2.5,2.5,0,0,1-2.51-4.33.91.91,0,0,1,.17-.09L176.91,1441a1.38,1.38,0,0,1,1.29,2.44Z"/><path class="cls-1" d="M185,1456.07l-31.46,18.57a2.5,2.5,0,0,1-2.54-4.31l.13-.07,32.54-16.61a1.38,1.38,0,0,1,1.33,2.42Z"/><path class="cls-1" d="M192,1468.55l-36.21,22a2.5,2.5,0,1,1-2.59-4.28l.11-.06,37.32-20a1.38,1.38,0,0,1,1.37,2.39Z"/><path class="cls-1" d="M199.24,1480.93l-39.61,24.72a2.5,2.5,0,1,1-2.65-4.24l.1-.06,40.76-22.8a1.38,1.38,0,0,1,1.4,2.38Z"/><path class="cls-1" d="M206.65,1493.18l-43.13,27.74a2.5,2.5,0,1,1-2.71-4.2l.1-.06,44.29-25.83a1.38,1.38,0,0,1,1.45,2.35Z"/><path class="cls-1" d="M214.24,1505.32l-42.38,28.22a2.5,2.5,0,1,1-2.78-4.16l.1-.06L212.76,1503a1.38,1.38,0,0,1,1.9.46A1.4,1.4,0,0,1,214.24,1505.32Z"/><path class="cls-1" d="M222,1517.34l-35.83,24.87a2.5,2.5,0,1,1-2.85-4.11l.11-.07,37-23a1.38,1.38,0,0,1,1.52,2.31Z"/><path class="cls-1" d="M230,1529.23l-33.12,23.86A2.5,2.5,0,1,1,194,1549l.11-.08,34.38-22a1.38,1.38,0,0,1,1.91.41A1.4,1.4,0,0,1,230,1529.23Z"/><path class="cls-1" d="M238.16,1541l-23.22,17.68a2.5,2.5,0,1,1-3-4l.16-.11,24.5-15.85a1.38,1.38,0,0,1,1.59,2.26Z"/><path class="cls-1" d="M246.5,1552.63l-16.88,13.65a2.5,2.5,0,1,1-3.15-3.89,1.37,1.37,0,0,1,.21-.15l18.2-11.84a1.37,1.37,0,0,1,1.91.4A1.39,1.39,0,0,1,246.5,1552.63Z"/><path class="cls-1" d="M255,1564.14l-14.49,12.28a2.51,2.51,0,0,1-3.24-3.83,2.07,2.07,0,0,1,.24-.17l15.83-10.49a1.38,1.38,0,0,1,1.66,2.21Z"/><path class="cls-1" d="M263.73,1575.51l-22.17,18.61a2.5,2.5,0,1,1-3.22-3.83l.15-.12L262,1573.33a1.38,1.38,0,0,1,1.93.31A1.39,1.39,0,0,1,263.73,1575.51Z"/><path class="cls-1" d="M272.61,1586.74,253,1603.87a2.51,2.51,0,0,1-3.3-3.77l.17-.13,21-15.39a1.38,1.38,0,0,1,1.72,2.16Z"/><path class="cls-1" d="M281.67,1597.83,253.05,1623a2.5,2.5,0,1,1-3.3-3.76l.11-.09,30.05-23.41a1.38,1.38,0,0,1,1.76,2.13Z"/><path class="cls-1" d="M290.9,1608.78l-26.39,24a2.5,2.5,0,1,1-3.37-3.7l.12-.1,27.85-22.31a1.37,1.37,0,0,1,1.94.21A1.39,1.39,0,0,1,290.9,1608.78Z"/><path class="cls-1" d="M300.3,1619.58l-16.51,16a2.5,2.5,0,0,1-3.49-3.59l.19-.16,18-14.37a1.39,1.39,0,0,1,1.83,2.08Z"/><path class="cls-1" d="M309.87,1630.23l-14.71,14.89a2.5,2.5,0,1,1-3.56-3.51,1.12,1.12,0,0,1,.2-.18L308,1628.18a1.39,1.39,0,0,1,1.86,2Z"/><path class="cls-1" d="M319.6,1640.73l-9,9.94a2.51,2.51,0,1,1-3.73-3.36,2.06,2.06,0,0,1,.31-.28l10.48-8.32a1.39,1.39,0,0,1,2,.23A1.38,1.38,0,0,1,319.6,1640.73Z"/><path class="cls-1" d="M329.5,1651.07l-7.63,9a2.51,2.51,0,0,1-3.82-3.26,2.65,2.65,0,0,1,.34-.33l9.19-7.35a1.39,1.39,0,0,1,1.92,2Z"/><path class="cls-1" d="M339.56,1661.26l-6.87,8.45a2.51,2.51,0,1,1-3.53-3.53l8.45-6.87a1.39,1.39,0,0,1,1.95.2A1.37,1.37,0,0,1,339.56,1661.26Z"/><path class="cls-1" d="M349.78,1671.29l-5.41,7.19a2.52,2.52,0,1,1-4-3,3.75,3.75,0,0,1,.44-.45l7-5.63a1.39,1.39,0,0,1,2,1.92Z"/><path class="cls-1" d="M360.16,1681.16l-6.61,8.67a2.52,2.52,0,1,1-3.64-3.42l8.24-7.14a1.39,1.39,0,0,1,2,1.89Z"/><path class="cls-1" d="M370.69,1690.86l-7.87,10.31a2.51,2.51,0,0,1-4-3.05,3,3,0,0,1,.3-.32l9.52-8.8a1.39,1.39,0,0,1,2,1.86Z"/><path class="cls-1" d="M381.37,1700.4l-8,10.73a2.51,2.51,0,1,1-4-3,2.79,2.79,0,0,1,.28-.32l9.65-9.25a1.39,1.39,0,0,1,2,0A1.41,1.41,0,0,1,381.37,1700.4Z"/><path class="cls-1" d="M392.2,1709.77l-7.73,10.77a2.51,2.51,0,0,1-4.08-2.92,3,3,0,0,1,.27-.33l9.44-9.32a1.39,1.39,0,0,1,2.1,1.8Z"/><path class="cls-1" d="M403.17,1719l-8.06,11.51a2.51,2.51,0,0,1-4.11-2.88,2.6,2.6,0,0,1,.25-.31L401,1717.2a1.38,1.38,0,0,1,2,0A1.36,1.36,0,0,1,403.17,1719Z"/><path class="cls-1" d="M414.29,1728l-7.57,11.23a2.51,2.51,0,1,1-4.16-2.8,2.78,2.78,0,0,1,.26-.32l9.31-9.84a1.39,1.39,0,0,1,2.16,1.73Z"/><path class="cls-1" d="M425.55,1736.83l-7.3,11.24a2.51,2.51,0,0,1-4.21-2.73,2.23,2.23,0,0,1,.26-.33l9.07-9.87a1.38,1.38,0,0,1,2.18,1.69Z"/><path class="cls-1" d="M436.94,1745.5l-6.59,10.65a2.51,2.51,0,1,1-4.27-2.64,3.07,3.07,0,0,1,.27-.36l8.38-9.3a1.38,1.38,0,0,1,2.21,1.65Z"/><path class="cls-1" d="M448.47,1754l-5.14,9a2.51,2.51,0,0,1-4.36-2.5,2.36,2.36,0,0,1,.32-.44l6.95-7.67a1.39,1.39,0,0,1,2.23,1.62Z"/><path class="cls-1" d="M460.14,1762.3l-4.81,8.79a2.52,2.52,0,1,1-4.41-2.42,2.91,2.91,0,0,1,.32-.46l6.64-7.5a1.39,1.39,0,0,1,2.26,1.59Z"/><path class="cls-1" d="M471.93,1770.42l-3.59,7.28a2.53,2.53,0,0,1-4.53-2.24,2.3,2.3,0,0,1,.39-.57l5.44-6a1.4,1.4,0,0,1,2-.1A1.39,1.39,0,0,1,471.93,1770.42Z"/><path class="cls-1" d="M483.84,1778.36l-4.16,8.38a2.52,2.52,0,1,1-4.51-2.24,2.89,2.89,0,0,1,.33-.5l6-7.15a1.38,1.38,0,0,1,2.3,1.51Z"/><path class="cls-1" d="M495.89,1786.11l-4.32,8.89a2.52,2.52,0,1,1-4.53-2.19,2.59,2.59,0,0,1,.3-.48l6.21-7.7a1.39,1.39,0,0,1,2.34,1.48Z"/><path class="cls-1" d="M508.05,1793.67l-3.95,8.59a2.52,2.52,0,0,1-4.58-2.11,3.64,3.64,0,0,1,.31-.51l5.86-7.41a1.39,1.39,0,0,1,2.36,1.44Z"/><path class="cls-1" d="M520.32,1801l-4,8.94a2.51,2.51,0,1,1-4.59-2,2.64,2.64,0,0,1,.29-.49l5.92-7.81a1.39,1.39,0,0,1,2.37,1.41Z"/><path class="cls-1" d="M532.72,1808.21l-4.14,9.51a2.51,2.51,0,0,1-4.61-2,2.4,2.4,0,0,1,.27-.47l6.08-8.4a1.39,1.39,0,0,1,2.4,1.37Z"/><path class="cls-1" d="M545.22,1815.19l-4.34,10.21a2.51,2.51,0,1,1-4.62-2,2.42,2.42,0,0,1,.24-.45l6.3-9.13a1.39,1.39,0,0,1,2.42,1.33Z"/><path class="cls-1" d="M557.83,1822l-3.89,9.73a2.51,2.51,0,1,1-4.67-1.86,3.62,3.62,0,0,1,.25-.48l5.87-8.69a1.39,1.39,0,0,1,2.44,1.3Z"/><path class="cls-1" d="M570.55,1828.55l-4.84,12a2.51,2.51,0,0,1-4.65-1.88,1.79,1.79,0,0,1,.2-.39l6.83-11a1.39,1.39,0,0,1,2.46,1.26Z"/><path class="cls-1" d="M583.37,1834.93l-4,10.59a2.51,2.51,0,1,1-4.71-1.75,3.74,3.74,0,0,1,.22-.45l6-9.61a1.39,1.39,0,0,1,1.91-.45A1.41,1.41,0,0,1,583.37,1834.93Z"/><path class="cls-1" d="M596.28,1841.11l-4.53,12.26a2.51,2.51,0,0,1-4.71-1.74,2.35,2.35,0,0,1,.19-.39l6.56-11.31a1.38,1.38,0,0,1,2.49,1.18Z"/><path class="cls-1" d="M609.3,1847.08l-6.55,17.21a2.5,2.5,0,1,1-4.68-1.78c0-.09.08-.19.13-.28l8.58-16.28a1.38,1.38,0,0,1,2.52,1.13Z"/><path class="cls-1" d="M622.4,1852.85l-7.15,19.35a2.51,2.51,0,0,1-4.7-1.74,2.72,2.72,0,0,1,.11-.25l9.21-18.46a1.38,1.38,0,0,1,2.53,1.1Z"/><path class="cls-1" d="M635.59,1858.41l-7.35,20.67a2.5,2.5,0,1,1-4.71-1.67,2.44,2.44,0,0,1,.1-.24l9.41-19.81a1.38,1.38,0,0,1,2.55,1.05Z"/><path class="cls-1" d="M648.87,1863.77l-8.34,24.13a2.5,2.5,0,0,1-4.73-1.64,1.19,1.19,0,0,1,.08-.2l10.43-23.31a1.38,1.38,0,0,1,2.56,1Z"/><path class="cls-1" d="M662.24,1868.92l-8.62,25.95a2.5,2.5,0,1,1-4.75-1.57c0-.07,0-.13.08-.19l10.7-25.17a1.39,1.39,0,0,1,2.59,1Z"/><path class="cls-1" d="M675.68,1873.85l-9.28,29.08a2.5,2.5,0,1,1-4.77-1.52l.06-.17,11.39-28.32a1.38,1.38,0,0,1,2.6.93Z"/><path class="cls-1" d="M689.19,1878.58l-9.8,32.08a2.5,2.5,0,1,1-4.78-1.46,1,1,0,0,1,0-.16l11.92-31.36a1.38,1.38,0,0,1,2.61.9Z"/><path class="cls-1" d="M702.78,1883.09l-9.14,31.77a2.5,2.5,0,1,1-4.81-1.39s0-.11,0-.16l11.28-31.08a1.38,1.38,0,0,1,2.62.86Z"/><path class="cls-1" d="M716.44,1887.38l-9.11,33.44a2.5,2.5,0,1,1-4.83-1.31,1,1,0,0,1,0-.16l11.25-32.78a1.38,1.38,0,0,1,2.64.81Z"/><path class="cls-1" d="M730.17,1891.47l-9.44,36.5a2.5,2.5,0,1,1-4.85-1.25,1,1,0,0,0,0-.14l11.6-35.89a1.38,1.38,0,0,1,1.73-.89A1.4,1.4,0,0,1,730.17,1891.47Z"/><path class="cls-1" d="M744,1895.33l-8,33.39a2.5,2.5,0,0,1-4.87-1.17l0-.15,10.13-32.8a1.38,1.38,0,0,1,2.66.73Z"/><path class="cls-1" d="M757.8,1899,751,1930.15a2.5,2.5,0,1,1-4.88-1.07.85.85,0,0,1,0-.17l9-30.62a1.37,1.37,0,0,1,1.71-.93A1.38,1.38,0,0,1,757.8,1899Z"/><path class="cls-1" d="M771.7,1902.41l-6.21,30.65a2.5,2.5,0,0,1-4.9-1s0-.11,0-.17l8.39-30.12a1.38,1.38,0,0,1,2.68.64Z"/><path class="cls-1" d="M785.65,1905.62l-5,27.4a2.51,2.51,0,0,1-4.93-.9c0-.06,0-.13,0-.19L783,1905a1.38,1.38,0,0,1,2.69.6Z"/><path class="cls-1" d="M799.66,1908.62l-4.24,26a2.5,2.5,0,0,1-4.94-.81c0-.07,0-.14,0-.21l6.43-25.53a1.39,1.39,0,0,1,2.71.57Z"/><path class="cls-1" d="M813.71,1911.39,810.54,1934a2.5,2.5,0,0,1-5-.69,1.69,1.69,0,0,1,0-.24l5.36-22.16a1.39,1.39,0,0,1,2.72.52Z"/><path class="cls-1" d="M827.79,1913.94l-1.66,16a2.5,2.5,0,0,1-5-.52,2,2,0,0,1,.06-.34l3.86-15.64a1.4,1.4,0,0,1,1.68-1A1.37,1.37,0,0,1,827.79,1913.94Z"/><path class="cls-1" d="M841.92,1916.27l-1.41,16a2.5,2.5,0,1,1-5-.44,2,2,0,0,1,.06-.34l3.61-15.69a1.39,1.39,0,0,1,2.73.43Z"/><path class="cls-1" d="M856.09,1918.38l-.62,12.27a2.51,2.51,0,0,1-5-.25,3.65,3.65,0,0,1,.07-.46l2.83-12a1.39,1.39,0,0,1,2.74.39Z"/><path class="cls-1" d="M870.28,1920.26l-.39,12a2.51,2.51,0,0,1-5-.17,2.31,2.31,0,0,1,0-.46l2.61-11.7a1.39,1.39,0,0,1,2.74.35Z"/><path class="cls-1" d="M884.5,1921.92l.07,9.58a2.52,2.52,0,1,1-5,0,2.32,2.32,0,0,1,.06-.59l2.16-9.33a1.39,1.39,0,0,1,2.74.3Z"/><path class="cls-1" d="M898.75,1923.36l.36,8.1a2.53,2.53,0,1,1-5.05.23,2.69,2.69,0,0,1,.07-.7l1.87-7.89a1.39,1.39,0,0,1,2.75.26Z"/><path class="cls-1" d="M913,1924.57l.48,8.28a2.52,2.52,0,1,1-5-.39l1.76-8.1a1.39,1.39,0,0,1,2.75.21Z"/><path class="cls-1" d="M927.3,1925.56l.56,8.88a2.52,2.52,0,1,1-5,.32,2.64,2.64,0,0,1,0-.63l1.67-8.74a1.39,1.39,0,0,1,2.76.17Z"/><path class="cls-1" d="M941.6,1926.33l.61,10.69a2.51,2.51,0,1,1-5,.29,2.24,2.24,0,0,1,0-.52l1.62-10.59a1.39,1.39,0,0,1,1.58-1.17A1.41,1.41,0,0,1,941.6,1926.33Z"/><path class="cls-1" d="M955.91,1926.87l.77,11a2.51,2.51,0,1,1-5,.35,2.88,2.88,0,0,1,0-.51l1.47-10.88a1.39,1.39,0,0,1,1.56-1.19A1.4,1.4,0,0,1,955.91,1926.87Z"/><path class="cls-1" d="M970.22,1927.19l.87,11.21a2.51,2.51,0,0,1-5,.39,2.08,2.08,0,0,1,0-.5l1.37-11.16a1.39,1.39,0,0,1,2.76.06Z"/><path class="cls-1" d="M984.54,1927.27l1.12,11.07a2.51,2.51,0,1,1-5,.51,2.17,2.17,0,0,1,0-.51l1.12-11.07a1.39,1.39,0,0,1,2.76,0Z"/><path class="cls-1" d="M998.86,1927.14l1.29,11.17a2.51,2.51,0,1,1-5,.57,2.79,2.79,0,0,1,0-.5l1-11.2a1.37,1.37,0,0,1,1.49-1.26A1.4,1.4,0,0,1,998.86,1927.14Z"/><path class="cls-1" d="M1013.17,1926.78l1.46,10.88a2.51,2.51,0,1,1-5,.67,2.19,2.19,0,0,1,0-.51l.77-11a1.39,1.39,0,0,1,2.76-.09Z"/><path class="cls-1" d="M1027.48,1926.2l1.49,8a2.52,2.52,0,1,1-5,.93,2.68,2.68,0,0,1,0-.69l.74-8.08a1.4,1.4,0,0,1,2.76-.13Z"/><path class="cls-1" d="M1041.77,1925.39l1.89,12.19a2.51,2.51,0,1,1-5,.77,3.52,3.52,0,0,1,0-.45l.35-12.34a1.38,1.38,0,0,1,2.75-.17Z"/><path class="cls-1" d="M1056.05,1924.36l1.88,9.53a2.52,2.52,0,1,1-4.94,1,2.84,2.84,0,0,1,0-.58l.36-9.71a1.39,1.39,0,0,1,2.75-.21Z"/><path class="cls-1" d="M1070.32,1923.1l2,9.42a2.52,2.52,0,1,1-4.92,1,2.28,2.28,0,0,1-.05-.58l.21-9.63a1.39,1.39,0,0,1,2.75-.26Z"/><path class="cls-1" d="M1084.56,1921.62l2.2,9.71a2.52,2.52,0,1,1-4.91,1.11,2.67,2.67,0,0,1-.06-.56l0-10a1.39,1.39,0,0,1,2.74-.3Z"/><path class="cls-1" d="M1098.78,1919.91l2.39,10a2.51,2.51,0,1,1-4.89,1.17,3.48,3.48,0,0,1-.07-.54l-.17-10.33a1.37,1.37,0,0,1,1.36-1.41A1.39,1.39,0,0,1,1098.78,1919.91Z"/><path class="cls-1" d="M1113,1918l2.51,9.65a2.52,2.52,0,1,1-4.87,1.26,2.7,2.7,0,0,1-.08-.56l-.29-10a1.39,1.39,0,0,1,1.35-1.43A1.37,1.37,0,0,1,1113,1918Z"/><path class="cls-1" d="M1127.12,1915.84l2.79,10.46a2.51,2.51,0,0,1-4.86,1.29,2.85,2.85,0,0,1-.08-.51l-.58-10.81a1.39,1.39,0,0,1,1.32-1.46A1.37,1.37,0,0,1,1127.12,1915.84Z"/><path class="cls-1" d="M1141.24,1913.46l2.91,10.18a2.51,2.51,0,1,1-4.83,1.38,2.36,2.36,0,0,1-.09-.52l-.71-10.56a1.39,1.39,0,0,1,2.72-.48Z"/><path class="cls-1" d="M1155.32,1910.87l3.06,10a2.51,2.51,0,0,1-4.81,1.47,2,2,0,0,1-.1-.53l-.86-10.45a1.39,1.39,0,0,1,2.71-.52Z"/><path class="cls-1" d="M1169.36,1908.05l3.14,9.62a2.52,2.52,0,0,1-4.79,1.56,3.23,3.23,0,0,1-.11-.54l-.94-10.07a1.39,1.39,0,0,1,2.7-.57Z"/><path class="cls-1" d="M1183.36,1905l3.05,8.53a2.52,2.52,0,1,1-4.74,1.7,2.69,2.69,0,0,1-.14-.61l-.87-9a1.39,1.39,0,0,1,2.7-.6Z"/><path class="cls-1" d="M1197.3,1901.77l3.26,8.77a2.52,2.52,0,1,1-4.86,1.17l-1.09-9.3a1.4,1.4,0,0,1,1.23-1.54A1.38,1.38,0,0,1,1197.3,1901.77Z"/><path class="cls-1" d="M1211.19,1898.29l3.43,8.87a2.52,2.52,0,1,1-4.69,1.82,3.21,3.21,0,0,1-.15-.57l-1.26-9.43a1.39,1.39,0,0,1,2.67-.69Z"/><path class="cls-1" d="M1225,1894.6l3.57,8.82a2.52,2.52,0,1,1-4.67,1.89,2.82,2.82,0,0,1-.15-.57l-1.42-9.41a1.39,1.39,0,0,1,2.67-.73Z"/><path class="cls-1" d="M1238.8,1890.69l3.78,9a2.52,2.52,0,1,1-4.64,2,2.85,2.85,0,0,1-.16-.55l-1.63-9.62a1.39,1.39,0,0,1,2.65-.78Z"/><path class="cls-1" d="M1252.51,1886.57l3.44,7.35a2.53,2.53,0,0,1-4.58,2.14,2.44,2.44,0,0,1-.2-.67l-1.3-8a1.41,1.41,0,0,1,1.16-1.6A1.39,1.39,0,0,1,1252.51,1886.57Z"/><path class="cls-1" d="M1266.16,1882.23l3.29,6.51a2.53,2.53,0,1,1-4.51,2.29,2.56,2.56,0,0,1-.24-.74l-1.17-7.2a1.4,1.4,0,0,1,2.63-.86Z"/><path class="cls-1" d="M1279.73,1877.68l4.35,9.23a2.51,2.51,0,1,1-4.55,2.14,2.47,2.47,0,0,1-.18-.52l-2.23-10a1.39,1.39,0,0,1,2.61-.9Z"/><path class="cls-1" d="M1293.24,1872.92l5.07,10.77a2.51,2.51,0,0,1-4.55,2.14,2.41,2.41,0,0,1-.16-.45l-3-11.53a1.39,1.39,0,0,1,2.6-.93Z"/><path class="cls-1" d="M1306.66,1867.94l6.28,13.45a2.51,2.51,0,0,1-4.54,2.12c-.05-.11-.1-.24-.14-.35l-4.18-14.24a1.38,1.38,0,0,1,2.58-1Z"/><path class="cls-1" d="M1320,1862.75l7,14.53a2.51,2.51,0,0,1-4.53,2.17c0-.11-.09-.22-.12-.33l-4.88-15.35a1.39,1.39,0,0,1,2.57-1Z"/><path class="cls-1" d="M1333.26,1857.33l9.9,19.79a2.5,2.5,0,0,1-4.48,2.24,1.6,1.6,0,0,1-.1-.23l-7.85-20.69a1.38,1.38,0,0,1,2.53-1.11Z"/><path class="cls-1" d="M1346.43,1851.72l11.84,22.57a2.5,2.5,0,1,1-4.43,2.32,1.24,1.24,0,0,1-.1-.2l-9.81-23.52a1.38,1.38,0,0,1,2.5-1.17Z"/><path class="cls-1" d="M1359.54,1846l14.26,28.85a2.5,2.5,0,1,1-4.49,2.22l-.07-.16L1357,1847.08a1.38,1.38,0,0,1,2.52-1.13Z"/><path class="cls-1" d="M1372.53,1839.93l15.71,30.75a2.5,2.5,0,0,1-4.46,2.27l-.07-.15L1370,1841.11a1.38,1.38,0,0,1,2.5-1.18Z"/><path class="cls-1" d="M1385.43,1833.71l19,36.34a2.5,2.5,0,0,1-4.43,2.32l-.07-.12-17-37.32a1.38,1.38,0,0,1,2.48-1.22Z"/><path class="cls-1" d="M1398.23,1827.29l20.8,38.36a2.5,2.5,0,0,1-4.4,2.38l-.06-.11-18.8-39.37a1.38,1.38,0,0,1,2.46-1.26Z"/><path class="cls-1" d="M1410.92,1820.67l21.34,37.9a2.5,2.5,0,1,1-4.36,2.45.39.39,0,0,1-.06-.11L1408.48,1822a1.38,1.38,0,0,1,2.44-1.3Z"/><path class="cls-1" d="M1423.52,1813.86l19.69,33.5a2.5,2.5,0,1,1-4.31,2.53l-.07-.12-17.73-34.58a1.38,1.38,0,0,1,2.42-1.33Z"/><path class="cls-1" d="M1436,1806.84l18.27,29.77a2.5,2.5,0,0,1-4.27,2.62.64.64,0,0,0-.08-.14l-16.32-30.88a1.38,1.38,0,0,1,.57-1.87A1.4,1.4,0,0,1,1436,1806.84Z"/><path class="cls-1" d="M1448.37,1799.63l15.88,24.65A2.5,2.5,0,1,1,1460,1827l-.09-.16L1446,1801a1.38,1.38,0,0,1,2.38-1.41Z"/><path class="cls-1" d="M1460.62,1792.23l14.18,21a2.51,2.51,0,1,1-4.15,2.81l-.11-.19-12.27-22.16a1.38,1.38,0,0,1,2.35-1.44Z"/><path class="cls-1" d="M1472.76,1784.63l12.6,17.76a2.5,2.5,0,0,1-4.08,2.9,1.64,1.64,0,0,1-.14-.22l-10.71-19a1.38,1.38,0,0,1,2.33-1.48Z"/><path class="cls-1" d="M1484.78,1776.85l11,14.72a2.5,2.5,0,1,1-4,3,1.32,1.32,0,0,1-.16-.25l-9.15-16a1.38,1.38,0,0,1,2.31-1.51Z"/><path class="cls-1" d="M1496.67,1768.87l9.06,11.33a2.51,2.51,0,1,1-3.92,3.13,1.81,1.81,0,0,1-.22-.32l-7.2-12.59a1.38,1.38,0,0,1,2.28-1.55Z"/><path class="cls-1" d="M1508.44,1760.71l8.18,9.7a2.51,2.51,0,0,1-3.84,3.23,2.9,2.9,0,0,1-.25-.36l-6.35-11a1.39,1.39,0,0,1,2.26-1.59Z"/><path class="cls-1" d="M1520.08,1752.37l5.62,5.84a2.52,2.52,0,1,1-4,2.94l-3.82-7.16a1.4,1.4,0,0,1,2.24-1.62Z"/><path class="cls-1" d="M1531.58,1743.85l6.4,6.66a2.52,2.52,0,1,1-3.63,3.49,2.87,2.87,0,0,1-.37-.49l-4.61-8a1.39,1.39,0,0,1,2.21-1.65Z"/><path class="cls-1" d="M1543,1735.14l6.63,6.72a2.52,2.52,0,0,1-3.58,3.54,2.73,2.73,0,0,1-.37-.47l-4.86-8.1a1.38,1.38,0,0,1,.47-1.9A1.4,1.4,0,0,1,1543,1735.14Z"/><path class="cls-1" d="M1554.18,1726.26l6.8,6.69a2.52,2.52,0,1,1-3.53,3.59,2.26,2.26,0,0,1-.37-.46l-5-8.09a1.39,1.39,0,0,1,2.15-1.73Z"/><path class="cls-1" d="M1565.27,1717.2l6.57,6.18a2.52,2.52,0,0,1-3.46,3.67,2.62,2.62,0,0,1-.4-.48l-4.84-7.61a1.39,1.39,0,0,1,2.13-1.76Z"/><path class="cls-1" d="M1576.22,1708l6.07,5.39a2.52,2.52,0,1,1-3.35,3.77,2.26,2.26,0,0,1-.45-.53l-4.37-6.83a1.39,1.39,0,0,1,.42-1.93A1.41,1.41,0,0,1,1576.22,1708Z"/><path class="cls-1" d="M1587,1698.57l6.15,5.29a2.52,2.52,0,0,1-3.29,3.83,3.18,3.18,0,0,1-.46-.52l-4.47-6.77a1.39,1.39,0,0,1,.39-1.93A1.41,1.41,0,0,1,1587,1698.57Z"/><path class="cls-1" d="M1597.67,1689l6.24,5.19a2.52,2.52,0,0,1-3.23,3.88,2.5,2.5,0,0,1-.47-.51l-4.58-6.7a1.39,1.39,0,0,1,2-1.86Z"/><path class="cls-1" d="M1608.17,1679.27l6.32,5.09a2.52,2.52,0,1,1-3.17,3.93,2.88,2.88,0,0,1-.48-.51l-4.68-6.62a1.39,1.39,0,0,1,2-1.89Z"/><path class="cls-1" d="M1618.52,1669.37l5.36,3.92a2.54,2.54,0,0,1-3,4.1,2.47,2.47,0,0,1-.59-.62l-3.76-5.48a1.4,1.4,0,0,1,2-1.92Z"/><path class="cls-1" d="M1628.7,1659.31l6.48,4.89a2.53,2.53,0,0,1-3,4,3.31,3.31,0,0,1-.49-.5l-4.89-6.47a1.4,1.4,0,0,1,.27-2A1.38,1.38,0,0,1,1628.7,1659.31Z"/><path class="cls-1" d="M1638.73,1649.09l6.55,4.79a2.52,2.52,0,1,1-3,4.07,2.86,2.86,0,0,1-.5-.48l-5-6.4a1.4,1.4,0,0,1,.24-2A1.38,1.38,0,0,1,1638.73,1649.09Z"/><path class="cls-1" d="M1648.6,1638.71l6.62,4.69a2.52,2.52,0,1,1-2.91,4.12,2.59,2.59,0,0,1-.51-.48l-5.09-6.31a1.4,1.4,0,0,1,1.89-2Z"/><path class="cls-1" d="M1658.31,1628.18l8.39,6.13a2.52,2.52,0,0,1-3,4.06,3.51,3.51,0,0,1-.4-.37l-6.88-7.77a1.38,1.38,0,0,1,.12-2A1.4,1.4,0,0,1,1658.31,1628.18Z"/><path class="cls-1" d="M1667.84,1617.5l8.56,6.06a2.51,2.51,0,0,1-2.9,4.1,1.93,1.93,0,0,1-.4-.35l-7.08-7.73a1.39,1.39,0,0,1,1.82-2.08Z"/><path class="cls-1" d="M1677.21,1606.68l10.58,7.56a2.51,2.51,0,0,1-2.92,4.08,2.88,2.88,0,0,1-.33-.28l-9.12-9.26a1.38,1.38,0,0,1,1.79-2.1Z"/><path class="cls-1" d="M1686.41,1595.7l11.49,8.06a2.51,2.51,0,1,1-2.88,4.11,3.73,3.73,0,0,1-.3-.26l-10.07-9.78a1.39,1.39,0,0,1,1.76-2.13Z"/><path class="cls-1" d="M1695.43,1584.58l12.17,8.32a2.51,2.51,0,0,1-2.83,4.14l-.3-.24-10.77-10.06a1.4,1.4,0,0,1-.06-2A1.38,1.38,0,0,1,1695.43,1584.58Z"/><path class="cls-1" d="M1704.28,1573.33l12.34,8.15a2.51,2.51,0,0,1-2.77,4.18,3.4,3.4,0,0,1-.3-.23l-11-9.92a1.38,1.38,0,0,1,1.69-2.18Z"/><path class="cls-1" d="M1713,1561.93l12.18,7.75a2.51,2.51,0,0,1-2.69,4.23,2.55,2.55,0,0,1-.31-.24l-10.84-9.53a1.39,1.39,0,0,1,1.66-2.21Z"/><path class="cls-1" d="M1721.44,1550.4l12.83,7.94a2.51,2.51,0,1,1-2.63,4.27c-.11-.07-.21-.15-.3-.22l-11.53-9.76a1.38,1.38,0,0,1,1.63-2.23Z"/><path class="cls-1" d="M1729.74,1538.74l13.79,8.32a2.51,2.51,0,0,1-2.59,4.29l-.28-.2-12.5-10.15a1.38,1.38,0,0,1,1.58-2.26Z"/><path class="cls-1" d="M1737.87,1527l13.92,8.1a2.51,2.51,0,0,1-2.53,4.33,2.75,2.75,0,0,1-.28-.19l-12.66-10a1.38,1.38,0,0,1,1.55-2.28Z"/><path class="cls-1" d="M1745.8,1515l15.17,8.62a2.51,2.51,0,0,1-2.48,4.36l-.27-.18-13.93-10.49a1.38,1.38,0,0,1,1.51-2.31Z"/><path class="cls-1" d="M1753.55,1503l15.57,8.55a2.51,2.51,0,0,1-2.42,4.39l-.26-.17-14.37-10.44a1.38,1.38,0,0,1,1.48-2.33Z"/><path class="cls-1" d="M1761.11,1490.83l17.17,9.2a2.5,2.5,0,0,1-2.37,4.41,1.28,1.28,0,0,1-.25-.15l-16-11.11a1.38,1.38,0,0,1,1.44-2.35Z"/><path class="cls-1" d="M1768.48,1478.55l17.06,8.79a2.5,2.5,0,1,1-2.29,4.45l-.25-.15-15.93-10.71a1.39,1.39,0,0,1,1.41-2.38Z"/><path class="cls-1" d="M1775.65,1466.16l16.52,8.13a2.5,2.5,0,1,1-2.22,4.49l-.26-.15-15.41-10.08a1.38,1.38,0,0,1,1.37-2.39Z"/><path class="cls-1" d="M1782.63,1453.65l14.44,6.66a2.51,2.51,0,0,1-2.1,4.55,1.54,1.54,0,0,1-.31-.17l-13.36-8.62a1.38,1.38,0,0,1,1.33-2.42Z"/><path class="cls-1" d="M1789.41,1441l12.38,5.29a2.51,2.51,0,0,1-2,4.61,2.15,2.15,0,0,1-.37-.19l-11.33-7.27a1.38,1.38,0,0,1,1.29-2.44Z"/><path class="cls-1" d="M1796,1428.32l9.76,3.72a2.51,2.51,0,1,1-1.79,4.7,2.69,2.69,0,0,1-.48-.24l-8.74-5.72a1.39,1.39,0,0,1-.41-1.92A1.41,1.41,0,0,1,1796,1428.32Z"/><path class="cls-1" d="M1802.37,1415.51l8.33,2.83a2.52,2.52,0,0,1-1.62,4.77,2.6,2.6,0,0,1-.58-.28l-7.34-4.84a1.39,1.39,0,0,1,1.21-2.48Z"/><path class="cls-1" d="M1808.55,1402.59l5.19,1.2a2.56,2.56,0,0,1-1.16,5,2.72,2.72,0,0,1-1-.46l-4.24-3.23a1.42,1.42,0,0,1,1.18-2.5Z"/><path class="cls-1" d="M1814.53,1389.58l10.67,3.59a2.51,2.51,0,0,1-1.6,4.76,2.66,2.66,0,0,1-.45-.2l-9.76-5.64a1.38,1.38,0,0,1,1.14-2.51Z"/><path class="cls-1" d="M1820.3,1376.47l9.29,2.81a2.52,2.52,0,1,1-1.45,4.82,3.14,3.14,0,0,1-.53-.23l-8.41-4.86a1.39,1.39,0,0,1,1.1-2.54Z"/><path class="cls-1" d="M1825.86,1363.28l15.27,5.11a2.51,2.51,0,0,1-1.59,4.76l-.32-.14-14.42-7.18a1.38,1.38,0,0,1,1.06-2.55Z"/><path class="cls-1" d="M1831.21,1350l15.36,4.87a2.51,2.51,0,0,1-1.52,4.78,1.89,1.89,0,0,1-.33-.13l-14.52-7a1.38,1.38,0,0,1,1-2.57Z"/><path class="cls-1" d="M1836.36,1336.64l11.2,3a2.51,2.51,0,1,1-1.32,4.85,2.45,2.45,0,0,1-.45-.17l-10.41-5.13a1.39,1.39,0,0,1,1-2.58Z"/><path class="cls-1" d="M1841.3,1323.2l12.07,3.15a2.51,2.51,0,0,1-1.27,4.86,3,3,0,0,1-.42-.15l-11.32-5.27a1.38,1.38,0,0,1,.94-2.59Z"/><path class="cls-1" d="M1846,1309.68l12.09,3a2.51,2.51,0,1,1-1.2,4.88,3,3,0,0,1-.42-.15l-11.37-5.07a1.39,1.39,0,0,1,.9-2.61Z"/><path class="cls-1" d="M1850.53,1296.09l12.65,2.93a2.51,2.51,0,1,1-1.13,4.89,2.46,2.46,0,0,1-.41-.13l-12-5.06a1.39,1.39,0,0,1,.85-2.63Z"/><path class="cls-1" d="M1854.83,1282.43l12,2.52a2.51,2.51,0,1,1-1,4.91,3.66,3.66,0,0,1-.44-.13l-11.33-4.66a1.39,1.39,0,0,1,.82-2.64Z"/><path class="cls-1" d="M1858.91,1268.71l10.58,1.9a2.51,2.51,0,1,1-.89,5,3,3,0,0,1-.51-.14l-9.95-4.06a1.39,1.39,0,0,1,.77-2.65Z"/><path class="cls-1" d="M1862.77,1254.92l8.42,1.14a2.52,2.52,0,1,1-.68,5,2.34,2.34,0,0,1-.64-.18l-7.82-3.3a1.39,1.39,0,0,1-.75-1.82A1.41,1.41,0,0,1,1862.77,1254.92Z"/><path class="cls-1" d="M1866.42,1241.07l9.18,1.2a2.52,2.52,0,0,1-.65,5,2.83,2.83,0,0,1-.59-.15l-8.62-3.37a1.39,1.39,0,0,1,.68-2.68Z"/><path class="cls-1" d="M1869.85,1227.17l6.51.41a2.54,2.54,0,0,1-.32,5.07,2.42,2.42,0,0,1-.85-.21l-6-2.58a1.4,1.4,0,0,1,.64-2.69Z"/><path class="cls-1" d="M1873.07,1213.22l10.06,1.1a2.51,2.51,0,1,1-.54,5,2.44,2.44,0,0,1-.55-.12l-9.58-3.29a1.39,1.39,0,0,1,.61-2.69Z"/><path class="cls-1" d="M1876.06,1199.22l7,.31a2.53,2.53,0,1,1-.22,5.06,2.58,2.58,0,0,1-.79-.16l-6.58-2.51a1.4,1.4,0,0,1,.56-2.7Z"/><path class="cls-1" d="M1878.83,1185.17l11.77,1.1a2.51,2.51,0,0,1-.47,5,1.86,1.86,0,0,1-.47-.09l-11.35-3.3a1.39,1.39,0,0,1,.52-2.71Z"/><path class="cls-1" d="M1881.38,1171.08l16.22,1.69a2.51,2.51,0,0,1-.52,5l-.34-.06-15.83-3.9a1.38,1.38,0,0,1,.47-2.72Z"/><path class="cls-1" d="M1883.71,1157l18,1.72a2.51,2.51,0,1,1-.47,5l-.31-.05-17.69-3.93a1.38,1.38,0,0,1,.43-2.73Z"/><path class="cls-1" d="M1885.82,1142.79l17.3,1.33a2.5,2.5,0,1,1-.39,5,1.75,1.75,0,0,1-.32,0l-17-3.55a1.38,1.38,0,0,1,.39-2.73Z"/><path class="cls-1" d="M1887.7,1128.59l23.65,1.86a2.5,2.5,0,1,1-.4,5l-.23,0-23.36-4.08a1.38,1.38,0,0,1-1.13-1.6A1.4,1.4,0,0,1,1887.7,1128.59Z"/><path class="cls-1" d="M1889.34,1114.37l24.4,1.09a2.5,2.5,0,1,1-.23,5l-.22,0-24.2-3.32a1.38,1.38,0,0,1,.25-2.75Z"/><path class="cls-1" d="M1890.8,1100.13l25.13,1.25a2.5,2.5,0,0,1-.25,5l-.22,0-24.92-3.48a1.38,1.38,0,0,1,.26-2.74Z"/><path class="cls-1" d="M1892,1085.86l28.4,1.11a2.5,2.5,0,1,1-.2,5h-.2l-28.22-3.35a1.38,1.38,0,0,1,.22-2.75Z"/><path class="cls-1" d="M1893,1071.57l27.37.6a2.51,2.51,0,0,1-.11,5l-.21,0-27.23-2.83a1.38,1.38,0,0,1-1.23-1.52A1.4,1.4,0,0,1,1893,1071.57Z"/><path class="cls-1" d="M1893.77,1057.28l27.9.19a2.5,2.5,0,0,1,0,5h-.2l-27.79-2.44a1.38,1.38,0,0,1,.13-2.75Z"/><path class="cls-1" d="M1894.31,1043l27.32-.26a2.5,2.5,0,1,1,0,5h-.21l-27.25-2a1.38,1.38,0,0,1,.09-2.76Z"/><path class="cls-1" d="M1894.63,1028.65l27-.69a2.5,2.5,0,1,1,.13,5h-.21l-26.93-1.55a1.38,1.38,0,0,1,.05-2.76Z"/><path class="cls-1" d="M1894.72,1014.33l27.37-1.12a2.5,2.5,0,1,1,.21,5h-.21l-27.37-1.11a1.39,1.39,0,0,1,0-2.77Z"/><path class="cls-1" d="M1894.58,1000l27.48-1.55a2.5,2.5,0,1,1,.28,5h-.2l-27.51-.68a1.38,1.38,0,0,1-.05-2.76Z"/><path class="cls-1" d="M1894.22,985.7l27.8-2a2.5,2.5,0,0,1,.36,5h-.21l-27.86-.25a1.38,1.38,0,0,1-.09-2.76Z"/><path class="cls-1" d="M1893.64,971.39l26.12-2.35a2.51,2.51,0,0,1,.45,5H1920l-26.23.11a1.38,1.38,0,0,1-1.39-1.37A1.41,1.41,0,0,1,1893.64,971.39Z"/><path class="cls-1" d="M1892.83,957.1l23.61-2.61a2.51,2.51,0,1,1,.55,5h-.23l-23.75.38a1.38,1.38,0,0,1-.18-2.76Z"/><path class="cls-1" d="M1891.8,942.82l20.42-2.73a2.5,2.5,0,1,1,.67,5l-.27,0-20.6.5a1.38,1.38,0,0,1-.22-2.75Z"/><path class="cls-1" d="M1890.54,928.55l18.89-2.91a2.51,2.51,0,1,1,.76,5l-.29,0-19.1.68a1.38,1.38,0,0,1-.26-2.75Z"/><path class="cls-1" d="M1889.06,914.31l14.55-2.73a2.51,2.51,0,0,1,.93,4.93,2.45,2.45,0,0,1-.38,0l-14.8.51a1.39,1.39,0,0,1-.3-2.75Z"/><path class="cls-1" d="M1887.36,900.1l12.5-2.71a2.51,2.51,0,1,1,1.07,4.9,3.32,3.32,0,0,1-.44.06l-12.79.49a1.39,1.39,0,0,1-.34-2.74Z"/><path class="cls-1" d="M1885.43,885.91l12.22-2.87a2.51,2.51,0,0,1,1.15,4.89,3.71,3.71,0,0,1-.45.06l-12.53.65a1.38,1.38,0,0,1-.39-2.73Z"/><path class="cls-1" d="M1883.28,871.75l11.83-3a2.51,2.51,0,0,1,1.24,4.87,2.44,2.44,0,0,1-.46.07l-12.18.8a1.39,1.39,0,0,1-.43-2.73Z"/><path class="cls-1" d="M1880.91,857.63l10.57-3a2.51,2.51,0,1,1,1.36,4.84,4.37,4.37,0,0,1-.5.09l-11,.77a1.39,1.39,0,0,1-.47-2.72Z"/><path class="cls-1" d="M1878.31,843.55l10.28-3.1a2.51,2.51,0,0,1,1.45,4.81,2.3,2.3,0,0,1-.51.1l-10.7.9a1.39,1.39,0,0,1-.52-2.71Z"/><path class="cls-1" d="M1875.5,829.51l9.62-3.14a2.52,2.52,0,0,1,1.56,4.79,2.68,2.68,0,0,1-.55.11l-10.07.94a1.39,1.39,0,0,1-.56-2.7Z"/><path class="cls-1" d="M1872.46,815.52l8.14-3a2.52,2.52,0,0,1,1.73,4.74,2.94,2.94,0,0,1-.64.14l-8.62.78a1.39,1.39,0,0,1-.61-2.69Z"/><path class="cls-1" d="M1869.21,801.57l7.55-3a2.52,2.52,0,1,1,1.84,4.7,2.62,2.62,0,0,1-.67.16l-8.08.79a1.4,1.4,0,0,1-.64-2.69Z"/><path class="cls-1" d="M1865.74,787.68l6.9-2.93a2.53,2.53,0,0,1,2,4.66,2.71,2.71,0,0,1-.73.19l-7.46.76a1.4,1.4,0,0,1-.68-2.68Z"/><path class="cls-1" d="M1862.05,773.85l7.45-3.2a2.52,2.52,0,0,1,2,4.64,2.66,2.66,0,0,1-.67.18l-8,1a1.39,1.39,0,0,1-.72-2.66Z"/><path class="cls-1" d="M1858.14,760.07l7.88-3.45a2.52,2.52,0,1,1,2,4.62,2.83,2.83,0,0,1-.63.18l-8.5,1.3a1.39,1.39,0,0,1-.77-2.65Z"/><path class="cls-1" d="M1854,746.36l7.66-3.53a2.52,2.52,0,0,1,2.12,4.58,2.63,2.63,0,0,1-.64.2l-8.32,1.39a1.39,1.39,0,0,1-.82-2.64Z"/><path class="cls-1" d="M1849.68,732.71l7.29-3.54a2.52,2.52,0,1,1,2.21,4.54,2.67,2.67,0,0,1-.66.21l-8,1.42a1.39,1.39,0,0,1-.85-2.63Z"/><path class="cls-1" d="M1845.12,719.14l7.24-3.66a2.52,2.52,0,0,1,2.28,4.5,2.73,2.73,0,0,1-.66.23l-8,1.54a1.39,1.39,0,0,1-.9-2.61Z"/><path class="cls-1" d="M1840.36,705.64l8.48-4.25a2.52,2.52,0,0,1,2.25,4.51,2.88,2.88,0,0,1-.56.2l-9.23,2.13a1.39,1.39,0,0,1-.94-2.59Z"/><path class="cls-1" d="M1835.38,692.21l8.78-4.51a2.51,2.51,0,0,1,2.3,4.47,2.74,2.74,0,0,1-.54.21l-9.56,2.41a1.39,1.39,0,0,1-1-2.58Z"/><path class="cls-1" d="M1830.2,678.86l9.71-5.05a2.51,2.51,0,0,1,2.32,4.46,2.39,2.39,0,0,1-.48.19l-10.54,3a1.39,1.39,0,0,1-1.71-1A1.4,1.4,0,0,1,1830.2,678.86Z"/><path class="cls-1" d="M1824.8,665.6l9.19-5a2.51,2.51,0,1,1,2.41,4.41,2.33,2.33,0,0,1-.49.21l-10.05,2.95a1.39,1.39,0,0,1-1.73-.94A1.4,1.4,0,0,1,1824.8,665.6Z"/><path class="cls-1" d="M1819.2,652.42l9.42-5.29a2.51,2.51,0,1,1,2.47,4.38,2.86,2.86,0,0,1-.48.2L1820.3,655a1.39,1.39,0,0,1-1.1-2.54Z"/><path class="cls-1" d="M1813.39,639.34l9.83-5.67a2.51,2.51,0,1,1,2.5,4.35,2,2,0,0,1-.45.21l-10.74,3.62a1.38,1.38,0,0,1-1.14-2.51Z"/><path class="cls-1" d="M1807.37,626.34l8.25-5.12a2.52,2.52,0,1,1,2.66,4.28,2.84,2.84,0,0,1-.53.25l-9.2,3.09a1.39,1.39,0,0,1-1.76-.87A1.4,1.4,0,0,1,1807.37,626.34Z"/><path class="cls-1" d="M1801.16,613.44l8.16-5.24a2.51,2.51,0,1,1,2.72,4.23,2.3,2.3,0,0,1-.52.26l-9.15,3.23a1.38,1.38,0,0,1-1.77-.84A1.4,1.4,0,0,1,1801.16,613.44Z"/><path class="cls-1" d="M1794.74,600.64l7.81-5.23a2.52,2.52,0,1,1,2.81,4.18,3,3,0,0,1-.54.27l-8.83,3.25a1.39,1.39,0,0,1-1.25-2.47Z"/><path class="cls-1" d="M1788.12,588l9-6a2.52,2.52,0,1,1,2.8,4.18,3.38,3.38,0,0,1-.46.24l-10,4a1.39,1.39,0,0,1-1.29-2.44Z"/><path class="cls-1" d="M1781.3,575.36l10.51-7.06a2.51,2.51,0,1,1,2.8,4.17,2.93,2.93,0,0,1-.39.21l-11.59,5.1a1.39,1.39,0,0,1-1.33-2.42Z"/><path class="cls-1" d="M1774.28,562.87l12-8.11a2.51,2.51,0,1,1,2.82,4.15,2.9,2.9,0,0,1-.34.19l-13.08,6.17a1.38,1.38,0,0,1-1.84-.66A1.39,1.39,0,0,1,1774.28,562.87Z"/><path class="cls-1" d="M1767.07,550.5l13.6-9.34a2.51,2.51,0,1,1,2.84,4.13,2.19,2.19,0,0,1-.29.17l-14.74,7.42a1.39,1.39,0,0,1-1.41-2.38Z"/><path class="cls-1" d="M1759.67,538.25l13-9.26a2.51,2.51,0,0,1,2.91,4.08,1.83,1.83,0,0,1-.3.18l-14.14,7.35a1.38,1.38,0,0,1-1.44-2.35Z"/><path class="cls-1" d="M1752.07,526.11l15.17-11a2.5,2.5,0,1,1,2.93,4.06,2.13,2.13,0,0,1-.25.16l-16.37,9.06a1.38,1.38,0,0,1-1.48-2.33Z"/><path class="cls-1" d="M1744.29,514.09l15.29-11.38a2.51,2.51,0,1,1,3,4l-.24.16-16.53,9.51a1.38,1.38,0,0,1-1.51-2.31Z"/><path class="cls-1" d="M1736.32,502.2l14.76-11.39a2.51,2.51,0,1,1,3.06,4,2.2,2.2,0,0,1-.25.17l-16,9.53a1.38,1.38,0,0,1-1.55-2.28Z"/><path class="cls-1" d="M1728.16,490.43l17.56-13.71a2.5,2.5,0,0,1,3.08,3.95l-.21.14-18.85,11.88a1.37,1.37,0,0,1-1.9-.43A1.4,1.4,0,0,1,1728.16,490.43Z"/><path class="cls-1" d="M1719.81,478.8,1738.29,464a2.5,2.5,0,1,1,3.13,3.91l-.19.14-19.79,13a1.38,1.38,0,0,1-1.63-2.23Z"/><path class="cls-1" d="M1711.28,467.3l22.08-18.41a2.51,2.51,0,1,1,3.21,3.85l-.16.12L1713,469.49a1.38,1.38,0,0,1-1.68-2.19Z"/><path class="cls-1" d="M1702.59,455.92l22.33-18.74a2.5,2.5,0,0,1,3.22,3.83l-.16.12-23.7,17a1.38,1.38,0,0,1-1.69-2.18Z"/><path class="cls-1" d="M1693.7,444.69l24.16-20.78a2.5,2.5,0,0,1,3.26,3.79l-.14.11-25.55,19a1.38,1.38,0,0,1-1.73-2.16Z"/><path class="cls-1" d="M1684.65,433.6l19.61-17.68a2.5,2.5,0,1,1,3.35,3.72l-.16.13-21,16a1.38,1.38,0,0,1-1.76-2.13Z"/><path class="cls-1" d="M1675.42,422.65l14.67-14a2.5,2.5,0,0,1,3.46,3.62l-.21.18-16.13,12.3a1.38,1.38,0,0,1-1.94-.26A1.39,1.39,0,0,1,1675.42,422.65Z"/><path class="cls-1" d="M1666,411.85l11.31-11.46a2.51,2.51,0,1,1,3.57,3.52l-.26.23-12.8,9.79a1.39,1.39,0,0,1-1.82-2.08Z"/><path class="cls-1" d="M1656.45,401.2l9.86-10.49a2.51,2.51,0,0,1,3.66,3.44l-.29.26-11.37,8.83a1.38,1.38,0,0,1-1.86-2Z"/><path class="cls-1" d="M1646.71,390.7l7.69-8.75a2.51,2.51,0,1,1,3.77,3.31,2.18,2.18,0,0,1-.35.33l-9.22,7.13a1.39,1.39,0,0,1-1.89-2Z"/><path class="cls-1" d="M1636.81,380.36l9.11-10.38a2.51,2.51,0,1,1,3.77,3.3l-.29.29-10.67,8.77a1.38,1.38,0,0,1-1.92-2Z"/><path class="cls-1" d="M1626.75,370.17l8.59-10.17a2.51,2.51,0,1,1,3.83,3.23,2.07,2.07,0,0,1-.29.3l-10.18,8.59a1.38,1.38,0,0,1-2-1.95Z"/><path class="cls-1" d="M1616.53,360.14,1624.8,350a2.51,2.51,0,1,1,3.89,3.17,2.94,2.94,0,0,1-.3.31l-9.87,8.58a1.39,1.39,0,0,1-2-.14A1.38,1.38,0,0,1,1616.53,360.14Z"/><path class="cls-1" d="M1606.16,350.27l7.39-9.5a2.51,2.51,0,0,1,4,3.08,2.58,2.58,0,0,1-.32.34l-9,8a1.39,1.39,0,0,1-2-1.89Z"/><path class="cls-1" d="M1595.64,340.55l7.79-10a2.51,2.51,0,0,1,4,3.09,2.42,2.42,0,0,1-.31.33l-9.42,8.45a1.39,1.39,0,0,1-2-1.89Z"/><path class="cls-1" d="M1585,331l7.58-10.13a2.51,2.51,0,1,1,4,3c-.09.11-.2.23-.3.33l-9.25,8.64a1.39,1.39,0,0,1-2-1.85Z"/><path class="cls-1" d="M1574.12,321.66l11.81-15.54a2.5,2.5,0,1,1,4,3,1.92,1.92,0,0,1-.18.22l-13.51,14.1a1.39,1.39,0,0,1-2.1-1.8Z"/><path class="cls-1" d="M1563.14,312.47,1576,295.2a2.5,2.5,0,1,1,4,3,1.63,1.63,0,0,1-.17.2l-14.56,15.85a1.38,1.38,0,0,1-2.13-1.76Z"/><path class="cls-1" d="M1552,303.44l15.35-20.95a2.5,2.5,0,0,1,4,3l-.14.17-17.1,19.55a1.38,1.38,0,0,1-2.15-1.73Z"/><path class="cls-1" d="M1540.77,294.59l18.91-26.2a2.5,2.5,0,0,1,4.06,2.93l-.11.13L1543,296.29a1.38,1.38,0,0,1-2.18-1.7Z"/><path class="cls-1" d="M1529.37,285.93l23.83-33.6a2.5,2.5,0,1,1,4.08,2.89l-.08.11-25.62,32.25a1.38,1.38,0,0,1-2.21-1.65Z"/><path class="cls-1" d="M1517.84,277.44l30-43.22a2.5,2.5,0,1,1,4.11,2.85.47.47,0,0,0-.06.09l-31.83,41.9a1.38,1.38,0,0,1-2.24-1.62Z"/><path class="cls-1" d="M1506.18,269.13l35.7-52.74a2.5,2.5,0,0,1,4.14,2.8l0,.07-37.53,51.46a1.38,1.38,0,0,1-2.26-1.59Z"/><path class="cls-1" d="M1494.37,261l43.06-68.22a2.5,2.5,0,0,1,4.23,2.66l0,.06-44.94,67a1.38,1.38,0,0,1-2.32-1.5Z"/><path class="cls-1" d="M1482.47,253.07l51.8-80.9a2.5,2.5,0,1,1,4.21,2.7l0,0-53.67,79.66a1.38,1.38,0,0,1-2.31-1.51Z"/><path class="cls-1" d="M1470.43,245.32l60.8-97.89a2.5,2.5,0,0,1,4.24,2.64l0,0-62.69,96.69a1.38,1.38,0,0,1-2.33-1.48Z"/><path class="cls-1" d="M1458.27,237.76l68.78-114.38a2.5,2.5,0,1,1,4.28,2.58l0,0-70.69,113.2a1.38,1.38,0,0,1-2.35-1.44Z"/><path class="cls-1" d="M1446,230.39l74.11-127.51a2.5,2.5,0,0,1,4.32,2.51v0l-76,126.37a1.38,1.38,0,0,1-2.38-1.41Z"/><path class="cls-1" d="M1433.6,223.22l79.8-142.17a2.5,2.5,0,0,1,4.36,2.45l0,0L1436,224.59a1.38,1.38,0,0,1-2.4-1.37Z"/><path class="cls-1" d="M1421.1,216.24l82.66-152.68a2.5,2.5,0,1,1,4.4,2.38l0,0-84.62,151.61a1.38,1.38,0,0,1-2.42-1.33Z"/><path class="cls-1" d="M1408.48,209.46l85.46-163.78a2.5,2.5,0,0,1,4.43,2.31l0,0-87.43,162.74a1.38,1.38,0,0,1-1.87.56A1.4,1.4,0,0,1,1408.48,209.46Z"/><path class="cls-1" d="M1395.77,202.88l86.56-172.36a2.5,2.5,0,0,1,4.47,2.25v0l-88.56,171.35a1.38,1.38,0,0,1-2.46-1.26Z"/><path class="cls-1" d="M1383,196.5l86.4-178.91a2.5,2.5,0,1,1,4.5,2.17v0l-88.41,177.93a1.38,1.38,0,0,1-2.48-1.22Z"/><path class="cls-1" d="M1370,190.32,1454.25,8.73a2.5,2.5,0,1,1,4.53,2.1v0L1372.53,191.5a1.38,1.38,0,0,1-2.5-1.18Z"/><path class="cls-1" d="M1357,184.35,1438.36,1.48a2.5,2.5,0,0,1,4.57,2l0,0-83.37,181.94a1.38,1.38,0,0,1-2.52-1.13Z"/><path class="cls-1" d="M1343.92,178.58,1418.54,3.31a2.5,2.5,0,1,1,4.6,2v0l-76.68,174.37a1.38,1.38,0,0,1-2.53-1.09Z"/><path class="cls-1" d="M1330.72,173,1397.51,8.84a2.5,2.5,0,0,1,4.64,1.88l0,0-68.86,163.32a1.38,1.38,0,0,1-2.55-1.06Z"/><path class="cls-1" d="M1317.44,167.66,1376.67,15a2.5,2.5,0,0,1,4.66,1.81v0L1320,168.68a1.38,1.38,0,0,1-2.57-1Z"/><path class="cls-1" d="M1304.08,162.51,1355.15,24.2a2.5,2.5,0,1,1,4.69,1.74l0,0-53.16,137.52a1.38,1.38,0,0,1-2.58-1Z"/><path class="cls-1" d="M1290.64,157.58,1333.8,34.39a2.5,2.5,0,0,1,4.72,1.66l0,0-45.26,122.42a1.38,1.38,0,0,1-2.6-.93Z"/><path class="cls-1" d="M1277.12,152.85,1312.51,46a2.5,2.5,0,1,1,4.75,1.57l0,0-37.51,106.09a1.38,1.38,0,0,1-2.61-.9Z"/><path class="cls-1" d="M1263.53,148.34,1291.72,58a2.5,2.5,0,0,1,4.78,1.49l0,.06-30.32,89.69a1.38,1.38,0,0,1-2.63-.86Z"/><path class="cls-1" d="M1249.87,144.05l21.18-72.66a2.5,2.5,0,0,1,4.81,1.4l0,.07-23.32,72a1.38,1.38,0,0,1-2.64-.81Z"/><path class="cls-1" d="M1236.15,140l15.36-56.87a2.5,2.5,0,0,1,4.83,1.3l0,.1-17.51,56.24a1.38,1.38,0,0,1-2.65-.77Z"/><path class="cls-1" d="M1222.36,136.1l11.13-44.92a2.5,2.5,0,1,1,4.85,1.21l0,.11L1225,136.83a1.38,1.38,0,0,1-2.67-.73Z"/><path class="cls-1" d="M1208.52,132.45l7.63-34.25a2.51,2.51,0,0,1,4.89,1.09s0,.11,0,.15l-9.81,33.7a1.38,1.38,0,0,1-2.67-.69Z"/><path class="cls-1" d="M1194.61,129l5.73-28.63a2.5,2.5,0,0,1,4.9,1,1.29,1.29,0,0,1,0,.19l-7.9,28.1a1.38,1.38,0,0,1-1.7,1A1.4,1.4,0,0,1,1194.61,129Z"/><path class="cls-1" d="M1180.66,125.81l3.11-19a2.5,2.5,0,0,1,4.94.81,2.3,2.3,0,0,1-.06.28l-5.29,18.55a1.39,1.39,0,0,1-2.7-.6Z"/><path class="cls-1" d="M1166.66,122.81l3.77-23.73a2.51,2.51,0,0,1,5,.78c0,.08,0,.16-.05.23l-6,23.28a1.38,1.38,0,0,1-2.7-.56Z"/><path class="cls-1" d="M1152.61,120l3.85-26.17a2.51,2.51,0,0,1,5,.73c0,.07,0,.14,0,.21l-6.06,25.75a1.38,1.38,0,0,1-1.66,1A1.4,1.4,0,0,1,1152.61,120Z"/><path class="cls-1" d="M1138.52,117.49l4.07-29.83a2.5,2.5,0,0,1,5,.67l0,.19L1141.24,118a1.38,1.38,0,0,1-2.72-.48Z"/><path class="cls-1" d="M1124.39,115.16l3.9-31.76a2.5,2.5,0,0,1,5,.61l0,.17-6.11,31.41a1.39,1.39,0,0,1-1.62,1.1A1.41,1.41,0,0,1,1124.39,115.16Z"/><path class="cls-1" d="M1110.23,113.05l3.68-33.8a2.5,2.5,0,1,1,5,.54.88.88,0,0,1,0,.16l-5.9,33.49a1.38,1.38,0,0,1-2.73-.39Z"/><path class="cls-1" d="M1096,111.17l3.42-36.06a2.5,2.5,0,0,1,5,.47.88.88,0,0,1,0,.16l-5.64,35.78a1.38,1.38,0,0,1-2.74-.35Z"/><path class="cls-1" d="M1081.82,109.51l3-37.66a2.5,2.5,0,1,1,5,.4s0,.1,0,.15l-5.26,37.41a1.38,1.38,0,0,1-2.74-.3Z"/><path class="cls-1" d="M1067.57,108.07l2.09-34a2.5,2.5,0,1,1,5,.3c0,.06,0,.11,0,.17l-4.32,33.8a1.38,1.38,0,0,1-2.75-.26Z"/><path class="cls-1" d="M1053.3,106.86l1.37-31.63a2.5,2.5,0,1,1,5,.21c0,.06,0,.12,0,.18l-3.6,31.45a1.38,1.38,0,0,1-2.75-.21Z"/><path class="cls-1" d="M1039,105.87l.62-27.76a2.51,2.51,0,0,1,5,.11c0,.06,0,.14,0,.2L1041.77,106a1.38,1.38,0,0,1-2.75-.17Z"/><path class="cls-1" d="M1024.72,105.1l0-22.69a2.51,2.51,0,0,1,5,0,2,2,0,0,1,0,.25l-2.18,22.59a1.38,1.38,0,0,1-2.76-.13Z"/><path class="cls-1" d="M1010.41,104.56,1010,83.28a2.51,2.51,0,1,1,5-.11c0,.09,0,.18,0,.27l-1.79,21.21a1.38,1.38,0,0,1-1.49,1.26A1.39,1.39,0,0,1,1010.41,104.56Z"/><path class="cls-1" d="M996.1,104.25l-.82-19.44a2.51,2.51,0,1,1,5-.21,2.81,2.81,0,0,1,0,.29l-1.42,19.4a1.38,1.38,0,0,1-2.76,0Z"/></g></g></svg>