<svg xmlns="http://www.w3.org/2000/svg" viewBox="0 0 77.86 78.28"><title>Mastering_Icon</title><g id="Layer_2" data-name="Layer 2"><g id="Layer_1-2" data-name="Layer 1"><path d="M76.36,0H1.5A1.5,1.5,0,0,0,0,1.5V76.78a1.5,1.5,0,0,0,1.5,1.5H76.36a1.5,1.5,0,0,0,1.5-1.5V1.5A1.5,1.5,0,0,0,76.36,0ZM3,3H74.86V29.06H3ZM14.15,32.06H25.72V56.75a.67.67,0,0,1-.67.67H14.81a.67.67,0,0,1-.66-.67Zm10.9,27.36a2.68,2.68,0,0,0,2.67-2.67V32.06h3.43V56.75a2.67,2.67,0,0,0,2.66,2.67h4.12V75.28h-17V59.42Zm8.76-2a.66.66,0,0,1-.66-.67V32.06H44.72V56.75a.67.67,0,0,1-.67.67Zm6.12,2h4.12a2.68,2.68,0,0,0,2.67-2.67V32.06h3.42V56.75a2.68,2.68,0,0,0,2.67,2.67h4.12V75.28h-17Zm12.88-2a.67.67,0,0,1-.67-.67V32.06H63.71V56.75a.66.66,0,0,1-.66.67ZM3,32.06h9.15V56.75a2.67,2.67,0,0,0,2.66,2.67h4.12V75.28H3ZM74.86,75.28H58.93V59.42h4.12a2.67,2.67,0,0,0,2.66-2.67V32.06h9.15Z"/></g></g></svg>