<svg xmlns="http://www.w3.org/2000/svg" viewBox="0 0 73.29 79.62"><title>Mixing Icon</title><g id="Layer_2" data-name="Layer 2"><g id="Layer_1-2" data-name="Layer 1"><path d="M12,32.49V1.5a1.5,1.5,0,0,0-3,0v31A10.51,10.51,0,0,0,9,53.3V78.12a1.5,1.5,0,0,0,3,0V53.3a10.51,10.51,0,0,0,0-20.81Zm-1.5,17.93a7.53,7.53,0,1,1,7.53-7.53A7.53,7.53,0,0,1,10.53,50.42Z"/><path d="M38.15,45.59V1.5a1.5,1.5,0,0,0-3,0V45.59a10.51,10.51,0,0,0,0,20.81V78.12a1.5,1.5,0,0,0,3,0V66.4a10.51,10.51,0,0,0,0-20.81Zm-1.5,17.93A7.53,7.53,0,1,1,44.17,56,7.53,7.53,0,0,1,36.65,63.52Z"/><path d="M73.29,23.61a10.53,10.53,0,0,0-9-10.41V1.5a1.5,1.5,0,0,0-3,0V13.2a10.51,10.51,0,0,0,0,20.81V78.12a1.5,1.5,0,1,0,3,0V34A10.53,10.53,0,0,0,73.29,23.61ZM62.77,31.13a7.53,7.53,0,1,1,7.52-7.52A7.53,7.53,0,0,1,62.77,31.13Z"/></g></g></svg>