<svg xmlns="http://www.w3.org/2000/svg" viewBox="0 0 82.37 81.87"><title>Recording Icon</title><g id="Layer_2" data-name="Layer 2"><g id="Layer_1-2" data-name="Layer 1"><path d="M61.55,0a20.7,20.7,0,0,0-19.9,26.77L18.87,49.54a9.05,9.05,0,0,0-1,11.53c-2.47,1-6,2.93-6,6.35,0,.32,0,.67,0,1,.06,2.41.14,5.71-2,7.88C8.27,78,5.44,78.87,1.5,78.87a1.5,1.5,0,0,0,0,3c4.78,0,8.33-1.15,10.55-3.43,3-3.07,2.89-7.27,2.83-10,0-.36,0-.68,0-1,0-1.82,3.1-3.29,5.17-3.94l.13.13a9,9,0,0,0,12.78,0L55.78,40.78A20.8,20.8,0,1,0,61.55,0ZM79.37,20.81A17.62,17.62,0,0,1,76.14,31h-.22c-.93,0-1.84-.07-2.72-.14l-.39,0c-.87-.08-1.73-.19-2.55-.33l-.35-.06c-.82-.15-1.61-.32-2.38-.53l-.3-.08c-.76-.22-1.51-.46-2.22-.73L64.77,29c-.72-.29-1.41-.6-2.06-.94l-.19-.1a19.89,19.89,0,0,1-1.9-1.14l-.12-.09a18.32,18.32,0,0,1-1.75-1.38l-.06-.06a20.26,20.26,0,0,1-1.59-1.62c-.31-.38-.61-.76-.89-1.14l-.13-.18c-.26-.37-.5-.75-.73-1.13a2.53,2.53,0,0,1-.13-.22c-.23-.38-.44-.77-.63-1.16l-.08-.16c-.19-.38-.36-.77-.52-1.16a.93.93,0,0,0-.05-.1c-.16-.4-.31-.81-.44-1.21L53.42,17c-.13-.39-.24-.78-.35-1.17L53,15.61c-.1-.39-.2-.78-.28-1.16,0,0,0-.07,0-.11-.08-.37-.15-.74-.21-1.1l0-.17c-.06-.36-.11-.72-.15-1.07l0-.23c0-.34-.07-.67-.1-1,0-.06,0-.13,0-.19,0-.32,0-.63-.06-.93V9.56c0-.3,0-.58,0-.86a1.41,1.41,0,0,1,0-.2c0-.26,0-.51,0-.75v-.2c0-.23,0-.45,0-.65a.92.92,0,0,0,0-.16c0-.17,0-.32,0-.46s0-.1,0-.14a4.07,4.07,0,0,1,0-.41V5.65A17.81,17.81,0,0,1,79.37,20.81ZM30.82,61.49a6,6,0,0,1-8.54,0L21,60.21a6.07,6.07,0,0,1,0-8.55L42.82,29.84h0c.23.47.48.93.74,1.38l.21.34c.26.43.53.85.82,1.26l0,.06c.31.43.63.83,1,1.23l.26.3c.34.39.68.77,1,1.13l0,0c.37.37.76.72,1.16,1.06.09.08.19.17.3.25.4.33.81.66,1.24,1h0c.42.3.87.58,1.31.85l.34.19a14.37,14.37,0,0,0,1.4.74h0ZM61.55,38.62A17.81,17.81,0,0,1,44.76,26.7,17.71,17.71,0,0,1,49.09,8.09V9l0,.76a2.17,2.17,0,0,0,0,.26c0,.21,0,.42,0,.63a2.64,2.64,0,0,0,0,.28c0,.29,0,.6.08.91v0c0,.3.07.61.11.92,0,.09,0,.19,0,.29s.07.48.11.72,0,.2.05.31c.06.33.13.67.2,1v0c.07.33.15.67.24,1,0,.11.05.21.08.32s.14.51.22.77a3,3,0,0,0,.1.32c.11.36.22.71.35,1.07v0c.13.34.26.69.41,1l.14.32c.11.26.23.52.35.78l.15.32c.18.35.36.71.55,1.06h0c.2.35.4.69.62,1l.2.3c.17.26.34.51.52.76l.22.3c.25.34.51.67.79,1a19.65,19.65,0,0,0,1.54,1.62l.22.21a19.5,19.5,0,0,0,1.64,1.37l.32.23c.57.42,1.17.81,1.79,1.18l.32.18a22.44,22.44,0,0,0,2,1l.18.08c.69.3,1.41.58,2.16.83l.23.08c.76.25,1.54.46,2.34.65l.42.1c.79.18,1.61.33,2.45.46l.46.06c.86.12,1.74.22,2.65.28l.11,0A17.67,17.67,0,0,1,61.55,38.62Z"/></g></g></svg>